<svg xmlns="http://www.w3.org/2000/svg" xmlns:xlink="http://www.w3.org/1999/xlink" viewBox="0 0 376.53 369.61"><defs><style>.cls-1{fill:url(#New_Gradient_Swatch_1);}.cls-2{fill:url(#New_Gradient_Swatch_1-2);}.cls-3{fill:url(#New_Gradient_Swatch_1-3);}.cls-4{fill:url(#New_Gradient_Swatch_1-4);}.cls-5{fill:url(#New_Gradient_Swatch_1-5);}.cls-6{fill:url(#New_Gradient_Swatch_1-6);}.cls-7{fill:url(#New_Gradient_Swatch_1-7);}.cls-8{fill:url(#New_Gradient_Swatch_1-8);}.cls-9{fill:url(#New_Gradient_Swatch_1-9);}.cls-10{fill:url(#New_Gradient_Swatch_1-10);}.cls-11{fill:url(#New_Gradient_Swatch_1-11);}.cls-12{fill:url(#New_Gradient_Swatch_1-12);}.cls-13{fill:url(#New_Gradient_Swatch_1-13);}.cls-14{fill:url(#New_Gradient_Swatch_1-14);}.cls-15{fill:url(#New_Gradient_Swatch_1-15);}.cls-16{fill:url(#New_Gradient_Swatch_1-16);}.cls-17{fill:url(#New_Gradient_Swatch_1-17);}.cls-18{fill:url(#New_Gradient_Swatch_1-18);}.cls-19{fill:url(#New_Gradient_Swatch_1-19);}.cls-20{fill:url(#New_Gradient_Swatch_1-20);}.cls-21{fill:url(#New_Gradient_Swatch_1-21);}.cls-22{fill:url(#New_Gradient_Swatch_1-22);}.cls-23{fill:url(#New_Gradient_Swatch_1-23);}.cls-24{fill:url(#New_Gradient_Swatch_1-24);}.cls-25{fill:url(#linear-gradient);}.cls-26{fill:url(#linear-gradient-2);}</style><linearGradient id="New_Gradient_Swatch_1" x1="77.21" y1="296.86" x2="307.97" y2="64.02" gradientTransform="translate(21.99 -20.01) rotate(6.46)" gradientUnits="userSpaceOnUse"><stop offset="0" stop-color="#a55a0b"/><stop offset="0.02" stop-color="#b06a1a"/><stop offset="0.06" stop-color="#c9913d"/><stop offset="0.1" stop-color="#deb059"/><stop offset="0.15" stop-color="#ecc66d"/><stop offset="0.19" stop-color="#f5d379"/><stop offset="0.22" stop-color="#f8d87d"/><stop offset="0.27" stop-color="#f4d278"/><stop offset="0.34" stop-color="#e9c269"/><stop offset="0.41" stop-color="#d7a850"/><stop offset="0.45" stop-color="#c9933d"/><stop offset="0.57" stop-color="#c37b1b"/><stop offset="0.75" stop-color="#e7ba5d"/><stop offset="0.84" stop-color="#f8d87d"/><stop offset="0.86" stop-color="#f4d377"/><stop offset="0.9" stop-color="#eac367"/><stop offset="0.94" stop-color="#d9a94d"/><stop offset="0.98" stop-color="#c18628"/><stop offset="1" stop-color="#b47214"/></linearGradient><linearGradient id="New_Gradient_Swatch_1-2" x1="109.74" y1="329.1" x2="340.5" y2="96.26" xlink:href="#New_Gradient_Swatch_1"/><linearGradient id="New_Gradient_Swatch_1-3" x1="37.42" y1="257.43" x2="268.18" y2="24.59" xlink:href="#New_Gradient_Swatch_1"/><linearGradient id="New_Gradient_Swatch_1-4" x1="-20.33" y1="200.19" x2="210.43" y2="-32.65" xlink:href="#New_Gradient_Swatch_1"/><linearGradient id="New_Gradient_Swatch_1-5" x1="-45.09" y1="175.65" x2="185.67" y2="-57.19" xlink:href="#New_Gradient_Swatch_1"/><linearGradient id="New_Gradient_Swatch_1-6" x1="-15.53" y1="204.96" x2="215.23" y2="-27.89" xlink:href="#New_Gradient_Swatch_1"/><linearGradient id="New_Gradient_Swatch_1-7" x1="44.68" y1="264.62" x2="275.44" y2="31.78" xlink:href="#New_Gradient_Swatch_1"/><linearGradient id="New_Gradient_Swatch_1-8" x1="117" y1="336.29" x2="347.76" y2="103.46" xlink:href="#New_Gradient_Swatch_1"/><linearGradient id="New_Gradient_Swatch_1-9" x1="174.75" y1="393.53" x2="405.51" y2="160.69" xlink:href="#New_Gradient_Swatch_1"/><linearGradient id="New_Gradient_Swatch_1-10" x1="199.51" y1="418.07" x2="430.27" y2="185.23" xlink:href="#New_Gradient_Swatch_1"/><linearGradient id="New_Gradient_Swatch_1-11" x1="169.94" y1="388.77" x2="400.7" y2="155.93" xlink:href="#New_Gradient_Swatch_1"/><linearGradient id="New_Gradient_Swatch_1-12" x1="113.52" y1="332.86" x2="344.27" y2="100.03" xlink:href="#New_Gradient_Swatch_1"/><linearGradient id="New_Gradient_Swatch_1-13" x1="32.79" y1="252.84" x2="263.53" y2="20.02" xlink:href="#New_Gradient_Swatch_1"/><linearGradient id="New_Gradient_Swatch_1-14" x1="-30.98" y1="189.64" x2="199.8" y2="-43.22" xlink:href="#New_Gradient_Swatch_1"/><linearGradient id="New_Gradient_Swatch_1-15" x1="-53.4" y1="167.37" x2="177.31" y2="-65.42" xlink:href="#New_Gradient_Swatch_1"/><linearGradient id="New_Gradient_Swatch_1-16" x1="-26.02" y1="194.65" x2="204.8" y2="-38.25" xlink:href="#New_Gradient_Swatch_1"/><linearGradient id="New_Gradient_Swatch_1-17" x1="40.91" y1="260.85" x2="271.65" y2="28.03" xlink:href="#New_Gradient_Swatch_1"/><linearGradient id="New_Gradient_Swatch_1-18" x1="121.64" y1="340.87" x2="352.39" y2="108.04" xlink:href="#New_Gradient_Swatch_1"/><linearGradient id="New_Gradient_Swatch_1-19" x1="185.39" y1="404.09" x2="416.16" y2="171.24" xlink:href="#New_Gradient_Swatch_1"/><linearGradient id="New_Gradient_Swatch_1-20" x1="207.82" y1="426.35" x2="438.63" y2="193.46" xlink:href="#New_Gradient_Swatch_1"/><linearGradient id="New_Gradient_Swatch_1-21" x1="180.39" y1="399.12" x2="411.13" y2="166.3" xlink:href="#New_Gradient_Swatch_1"/><linearGradient id="New_Gradient_Swatch_1-22" x1="77.21" y1="296.86" x2="307.97" y2="64.02" xlink:href="#New_Gradient_Swatch_1"/><linearGradient id="New_Gradient_Swatch_1-23" x1="77.21" y1="296.86" x2="307.97" y2="64.02" xlink:href="#New_Gradient_Swatch_1"/><linearGradient id="New_Gradient_Swatch_1-24" x1="114.47" y1="260.18" x2="258.61" y2="139.22" gradientTransform="matrix(1, 0, 0, 1, 0, 0)" xlink:href="#New_Gradient_Swatch_1"/><linearGradient id="linear-gradient" x1="199.83" y1="238.34" x2="227.04" y2="214.75" gradientUnits="userSpaceOnUse"><stop offset="0.12" stop-color="#f8d87d"/><stop offset="0.19" stop-color="#f4d377"/><stop offset="0.29" stop-color="#eac367"/><stop offset="0.39" stop-color="#d9a94d"/><stop offset="0.5" stop-color="#c18628"/><stop offset="0.55" stop-color="#b47214"/></linearGradient><linearGradient id="linear-gradient-2" x1="151.12" y1="241.91" x2="201.31" y2="198.12" gradientUnits="userSpaceOnUse"><stop offset="0.22" stop-color="#f8d87d"/><stop offset="0.27" stop-color="#f4d278"/><stop offset="0.34" stop-color="#e9c269"/><stop offset="0.41" stop-color="#d7a850"/><stop offset="0.45" stop-color="#c9933d"/><stop offset="0.57" stop-color="#c37b1b"/><stop offset="0.75" stop-color="#e7ba5d"/><stop offset="0.84" stop-color="#f8d87d"/><stop offset="0.86" stop-color="#f4d377"/><stop offset="0.9" stop-color="#eac367"/><stop offset="0.94" stop-color="#d9a94d"/><stop offset="0.98" stop-color="#c18628"/><stop offset="1" stop-color="#b47214"/></linearGradient></defs><g id="Layer_2" data-name="Layer 2"><g id="Layer_2-2" data-name="Layer 2"><path class="cls-1" d="M141.42,337.33a123,123,0,0,1-19.72-13.94,27.78,27.78,0,0,1-5.13-5.53,12.65,12.65,0,0,1-2-7.61,9.68,9.68,0,0,1,3.9-7.05,10.24,10.24,0,0,1,8-1.37,7.35,7.35,0,0,1,3.92,1.82,8.29,8.29,0,0,1,2.21,3.77,15.46,15.46,0,0,1-.18,8,26.86,26.86,0,0,1-8.2,13,30.92,30.92,0,0,1-13.75,7,39.92,39.92,0,0,1-7.67.89c-2.44,0-4.89.08-7.33.06-4.48,0-8.94-.27-13.31-.38-1.59-4.07-3.35-8.18-4.87-12.39-.85-2.29-1.65-4.6-2.44-6.91a41.16,41.16,0,0,1-1.77-7.52A31,31,0,0,1,75,293.85a26.8,26.8,0,0,1,9.42-12.13,15.4,15.4,0,0,1,7.47-2.88,8.15,8.15,0,0,1,4.29.79,7.38,7.38,0,0,1,3,3.07,10.27,10.27,0,0,1,1.41,7.95,9.64,9.64,0,0,1-5.31,6.06,12.56,12.56,0,0,1-7.82.72,27.49,27.49,0,0,1-7-2.94,124,124,0,0,1-19.82-13.82A124,124,0,0,1,53,257.8a27.64,27.64,0,0,1-.89-7.5A12.61,12.61,0,0,1,54.92,243a9.65,9.65,0,0,1,7.3-3.4,10.2,10.2,0,0,1,7.24,3.56,7.32,7.32,0,0,1,2.1,3.78,8,8,0,0,1-.43,4.34,15.34,15.34,0,0,1-4.84,6.37A26.86,26.86,0,0,1,52,263.32a31.08,31.08,0,0,1-15.23-2.42,40.6,40.6,0,0,1-6.73-3.79c-2-1.4-4-2.81-6-4.27-3.62-2.62-7.07-5.46-10.54-8.12,1.11-4.23,2.09-8.59,3.34-12.89.65-2.35,1.37-4.69,2.09-7a39.89,39.89,0,0,1,3-7.13,30.92,30.92,0,0,1,10.54-11.25,26.82,26.82,0,0,1,14.75-4.27A15.4,15.4,0,0,1,55,204.21a8.19,8.19,0,0,1,3,3.17,7.29,7.29,0,0,1,.66,4.28,10.18,10.18,0,0,1-3.53,7.25,9.62,9.62,0,0,1-7.85,1.79,12.73,12.73,0,0,1-6.76-4,28.1,28.1,0,0,1-3.89-6.47,123.47,123.47,0,0,1-7.9-22.82,124,124,0,0,1,7.16-23.07,27.71,27.71,0,0,1,3.68-6.59,12.62,12.62,0,0,1,6.62-4.23A9.64,9.64,0,0,1,54.1,155a10.21,10.21,0,0,1,3.76,7.14,7.24,7.24,0,0,1-.52,4.29,8.14,8.14,0,0,1-2.9,3.26A15.43,15.43,0,0,1,46.78,172a26.87,26.87,0,0,1-14.89-3.79A31,31,0,0,1,21,157.33a40.35,40.35,0,0,1-3.22-7c-.79-2.31-1.58-4.63-2.32-7-1.38-4.25-2.51-8.58-3.75-12.77,3.38-2.77,6.74-5.72,10.28-8.46,1.91-1.52,3.86-3,5.82-4.46a40,40,0,0,1,6.6-4,31.08,31.08,0,0,1,15.15-2.91A26.86,26.86,0,0,1,64,116,15.34,15.34,0,0,1,69,122.18a8.05,8.05,0,0,1,.57,4.32,7.26,7.26,0,0,1-2,3.85,10.18,10.18,0,0,1-7.12,3.79,9.57,9.57,0,0,1-7.4-3.16,12.56,12.56,0,0,1-3.1-7.23,27.15,27.15,0,0,1,.65-7.51,122.84,122.84,0,0,1,7-23.12A124,124,0,0,1,77,78.67a27.94,27.94,0,0,1,6.85-3.17,12.6,12.6,0,0,1,7.85.47,9.61,9.61,0,0,1,5.49,5.88,10.2,10.2,0,0,1-1.15,8A7.21,7.21,0,0,1,93.12,93a8,8,0,0,1-4.26.93,15.28,15.28,0,0,1-7.55-2.64,26.91,26.91,0,0,1-9.82-11.81,31,31,0,0,1-2.4-15.23,40.08,40.08,0,0,1,1.52-7.58c.72-2.33,1.43-4.67,2.21-7,1.38-4.26,3-8.42,4.47-12.54,4.36-.26,8.82-.67,13.29-.81,2.44-.1,4.89-.14,7.33-.18a40.1,40.1,0,0,1,7.7.64,31,31,0,0,1,14,6.55,26.85,26.85,0,0,1,8.62,12.71,15.38,15.38,0,0,1,.43,8,8.13,8.13,0,0,1-2.08,3.83,7.26,7.26,0,0,1-3.86,2,10.2,10.2,0,0,1-8-1.12,9.61,9.61,0,0,1-4.13-6.92,12.58,12.58,0,0,1,1.74-7.66,27.47,27.47,0,0,1,4.94-5.7,124.26,124.26,0,0,1,19.27-14.58,124.13,124.13,0,0,1,24.15-.31,27.88,27.88,0,0,1,7.4,1.46,12.66,12.66,0,0,1,6.08,5,9.59,9.59,0,0,1,1,8,10.23,10.23,0,0,1-5.62,5.79,7.26,7.26,0,0,1-4.25.83,8.22,8.22,0,0,1-4-1.75,15.29,15.29,0,0,1-4.55-6.58,26.8,26.8,0,0,1-1-15.32,31,31,0,0,1,7-13.74A40.71,40.71,0,0,1,168.39,12c2-1.47,3.91-2.94,5.9-4.36,3.61-2.63,7.38-5,11-7.51,3.68,2.36,7.52,4.64,11.23,7.15,2,1.36,4,2.76,6,4.16a40.53,40.53,0,0,1,5.85,5A31,31,0,0,1,215.83,30a26.82,26.82,0,0,1-.5,15.34A15.37,15.37,0,0,1,211,52.06a8.1,8.1,0,0,1-3.94,1.88,7.18,7.18,0,0,1-4.27-.69,10.18,10.18,0,0,1-5.81-5.6,9.6,9.6,0,0,1,.72-8,12.64,12.64,0,0,1,5.91-5.18,27.38,27.38,0,0,1,7.36-1.7,122.58,122.58,0,0,1,24.15-.47,123.44,123.44,0,0,1,19.72,13.94A27.78,27.78,0,0,1,260,51.75a12.64,12.64,0,0,1,2,7.61,9.62,9.62,0,0,1-3.9,7,10.22,10.22,0,0,1-8,1.37A7.35,7.35,0,0,1,246.17,66,8.2,8.2,0,0,1,244,62.19a15.35,15.35,0,0,1,.18-8,26.79,26.79,0,0,1,8.2-13,30.89,30.89,0,0,1,13.74-7,40.12,40.12,0,0,1,7.68-.89c2.44,0,4.89-.08,7.33-.06,4.47,0,8.94.27,13.3.38,1.59,4.07,3.36,8.18,4.88,12.39.85,2.29,1.64,4.6,2.44,6.91a40.33,40.33,0,0,1,1.76,7.52,30.94,30.94,0,0,1-1.91,15.3,26.83,26.83,0,0,1-9.43,12.13,15.33,15.33,0,0,1-7.46,2.88,8.13,8.13,0,0,1-4.29-.79,7.32,7.32,0,0,1-3.05-3.07,10.23,10.23,0,0,1-1.41-8,9.62,9.62,0,0,1,5.3-6.06,12.59,12.59,0,0,1,7.83-.72A28.17,28.17,0,0,1,296,75.12a123.93,123.93,0,0,1,19.81,13.82,123.29,123.29,0,0,1,7.77,22.87,27.64,27.64,0,0,1,.89,7.5,12.61,12.61,0,0,1-2.86,7.32,9.65,9.65,0,0,1-7.3,3.4,10.18,10.18,0,0,1-7.24-3.56,7.19,7.19,0,0,1-2.1-3.78,8,8,0,0,1,.43-4.34,15.25,15.25,0,0,1,4.84-6.37,26.86,26.86,0,0,1,14.27-5.69,31.08,31.08,0,0,1,15.23,2.42,40.6,40.6,0,0,1,6.73,3.79c2,1.4,4,2.81,6,4.27,3.63,2.62,7.08,5.46,10.55,8.12-1.11,4.23-2.09,8.59-3.34,12.89-.66,2.35-1.37,4.69-2.09,7a40.64,40.64,0,0,1-3,7.13A30.92,30.92,0,0,1,344,163.18a26.85,26.85,0,0,1-14.76,4.27,15.39,15.39,0,0,1-7.73-2,8.19,8.19,0,0,1-3-3.17,7.3,7.3,0,0,1-.67-4.28,10.23,10.23,0,0,1,3.54-7.25,9.61,9.61,0,0,1,7.85-1.79,12.67,12.67,0,0,1,6.75,4,27.41,27.41,0,0,1,3.89,6.47,122.77,122.77,0,0,1,7.91,22.82,124,124,0,0,1-7.16,23.07,28.06,28.06,0,0,1-3.68,6.59,12.62,12.62,0,0,1-6.62,4.23,9.6,9.6,0,0,1-7.91-1.53,10.26,10.26,0,0,1-3.77-7.14,7.32,7.32,0,0,1,.53-4.29,8.14,8.14,0,0,1,2.9-3.26,15.43,15.43,0,0,1,7.66-2.31,26.84,26.84,0,0,1,14.88,3.79,31,31,0,0,1,10.91,10.91,41.1,41.1,0,0,1,3.22,7c.79,2.31,1.58,4.63,2.31,7,1.39,4.25,2.51,8.58,3.76,12.77-3.38,2.77-6.74,5.72-10.28,8.46-1.91,1.52-3.87,3-5.82,4.46a40.41,40.41,0,0,1-6.6,4A31.08,31.08,0,0,1,327,258.86a26.86,26.86,0,0,1-14.44-5.22,15.26,15.26,0,0,1-5.05-6.21,8.05,8.05,0,0,1-.57-4.32,7.32,7.32,0,0,1,2-3.85,10.18,10.18,0,0,1,7.13-3.79,9.59,9.59,0,0,1,7.4,3.16,12.63,12.63,0,0,1,3.1,7.23,27.65,27.65,0,0,1-.65,7.52,123.71,123.71,0,0,1-7,23.11,123.34,123.34,0,0,1-19.35,14.45,27.94,27.94,0,0,1-6.85,3.17,12.6,12.6,0,0,1-7.85-.47,9.61,9.61,0,0,1-5.49-5.88,10.19,10.19,0,0,1,1.14-8,7.33,7.33,0,0,1,2.95-3.17,8.14,8.14,0,0,1,4.27-.93,15.28,15.28,0,0,1,7.55,2.64A26.82,26.82,0,0,1,305,290.12a30.94,30.94,0,0,1,2.41,15.23,40.08,40.08,0,0,1-1.52,7.58c-.72,2.33-1.44,4.67-2.22,7-1.37,4.25-3,8.42-4.47,12.53-4.36.26-8.81.67-13.28.81-2.44.1-4.89.14-7.33.18a39.25,39.25,0,0,1-7.7-.64,30.94,30.94,0,0,1-14-6.55,26.8,26.8,0,0,1-8.62-12.71,15.48,15.48,0,0,1-.44-8,8.15,8.15,0,0,1,2.09-3.83,7.22,7.22,0,0,1,3.86-2,10.22,10.22,0,0,1,8,1.12A9.65,9.65,0,0,1,266,307.8a12.65,12.65,0,0,1-1.74,7.66,27.22,27.22,0,0,1-5,5.7A123.09,123.09,0,0,1,240,335.74a124.13,124.13,0,0,1-24.15.31,27.49,27.49,0,0,1-7.4-1.46,12.66,12.66,0,0,1-6.08-5,9.63,9.63,0,0,1-1-8,10.24,10.24,0,0,1,5.63-5.79,7.26,7.26,0,0,1,4.25-.83,8.14,8.14,0,0,1,4,1.75,15.31,15.31,0,0,1,4.56,6.58,26.8,26.8,0,0,1,1,15.32,31,31,0,0,1-7,13.74,40.64,40.64,0,0,1-5.68,5.23c-1.95,1.47-3.91,2.94-5.9,4.36-3.62,2.63-7.39,5-11,7.51-3.68-2.36-7.53-4.64-11.23-7.15-2-1.35-4-2.76-6-4.16a40,40,0,0,1-5.85-5.05,31,31,0,0,1-7.45-13.5,26.76,26.76,0,0,1,.5-15.35,15.37,15.37,0,0,1,4.34-6.72,8.06,8.06,0,0,1,3.94-1.88,7.27,7.27,0,0,1,4.27.69,10.21,10.21,0,0,1,5.81,5.6,9.64,9.64,0,0,1-.72,8,12.66,12.66,0,0,1-5.92,5.18,27.22,27.22,0,0,1-7.35,1.7A122.58,122.58,0,0,1,141.42,337.33ZM85.91,330.6l9.68.52c2.39.14,4.78.2,7.18.27a36,36,0,0,0,6.75-.47,26.74,26.74,0,0,0,12.11-5.51,23.27,23.27,0,0,0,7.57-10.89c1.35-4.08,1-9.46-3.34-10.06a7.44,7.44,0,0,0-6,.81,7.18,7.18,0,0,0-3,5.2,9.77,9.77,0,0,0,1.57,6.19,25.55,25.55,0,0,0,4.71,5,84.48,84.48,0,0,0,19.09,12.8,85,85,0,0,0,23,.13A26.17,26.17,0,0,0,172,333.1a9.86,9.86,0,0,0,4.77-4.25,7.19,7.19,0,0,0,.45-6,7.44,7.44,0,0,0-4.48-4c-3.9-1.92-7.23,2.32-8.41,6.45a23.33,23.33,0,0,0,.15,13.27,26.82,26.82,0,0,0,6.94,11.35,35.64,35.64,0,0,0,5.32,4.18c2,1.29,4,2.58,6.09,3.81l8.31,5,8.14-5.26c2-1.31,4-2.66,6-4a35.62,35.62,0,0,0,5.18-4.35A26.81,26.81,0,0,0,217,337.73a23.2,23.2,0,0,0-.28-13.26c-1.3-4.1-4.77-8.23-8.61-6.18a7.44,7.44,0,0,0-4.34,4.15,7.2,7.2,0,0,0,.64,6,9.82,9.82,0,0,0,4.9,4.08,25.49,25.49,0,0,0,6.79,1.32,84.54,84.54,0,0,0,23-.87,84.66,84.66,0,0,0,18.67-13.41,25.81,25.81,0,0,0,4.55-5.2,9.79,9.79,0,0,0,1.36-6.23,7.21,7.21,0,0,0-3.15-5.11,7.42,7.42,0,0,0-6-.61c-4.29.74-4.49,6.13-3,10.16a23.26,23.26,0,0,0,7.92,10.64,26.84,26.84,0,0,0,12.28,5.11,35.4,35.4,0,0,0,6.76.25c2.39-.14,4.79-.29,7.17-.49l9.66-.84,3.49-9c.87-2.23,1.67-4.49,2.47-6.75a35.38,35.38,0,0,0,1.64-6.56,26.7,26.7,0,0,0-1.49-13.22,23.25,23.25,0,0,0-8-10.56c-3.46-2.55-8.7-3.85-10.6.06a7.4,7.4,0,0,0-1.07,5.91,7.19,7.19,0,0,0,4,4.45,9.77,9.77,0,0,0,6.37.42,25.82,25.82,0,0,0,6.27-2.92,84.57,84.57,0,0,0,18.06-14.2A84.91,84.91,0,0,0,323.66,253a25.75,25.75,0,0,0,.61-6.88,9.7,9.7,0,0,0-2.56-5.84,7.16,7.16,0,0,0-5.55-2.28,7.44,7.44,0,0,0-5.2,3c-3,3.11,0,7.59,3.54,10a23.31,23.31,0,0,0,12.67,4,26.73,26.73,0,0,0,12.93-3.09,34.71,34.71,0,0,0,5.62-3.77c1.85-1.52,3.7-3,5.51-4.61l7.32-6.36-2.49-9.37c-.61-2.31-1.29-4.61-2-6.91a35.85,35.85,0,0,0-2.53-6.28,26.78,26.78,0,0,0-9-9.81,23.17,23.17,0,0,0-12.7-3.83c-4.29,0-9.29,2-8.53,6.28a7.4,7.4,0,0,0,2.61,5.41,7.13,7.13,0,0,0,5.87,1.23,9.8,9.8,0,0,0,5.4-3.4,26.13,26.13,0,0,0,3.35-6,85.33,85.33,0,0,0,6.27-22.11,85,85,0,0,0-7-21.9,26,26,0,0,0-3.55-5.93,9.77,9.77,0,0,0-5.51-3.22,7.17,7.17,0,0,0-5.83,1.42,7.43,7.43,0,0,0-2.43,5.5c-.62,4.3,4.44,6.16,8.74,6a23.19,23.19,0,0,0,12.57-4.24,26.74,26.74,0,0,0,8.65-10.1,35.91,35.91,0,0,0,2.33-6.35c.6-2.32,1.2-4.64,1.74-7l2.19-9.45-7.52-6.11c-1.86-1.52-3.76-3-5.66-4.44a35.5,35.5,0,0,0-5.74-3.59,26.81,26.81,0,0,0-13-2.66,23.21,23.21,0,0,0-12.53,4.36c-3.48,2.51-6.34,7.08-3.21,10.1a7.47,7.47,0,0,0,5.29,2.85,7.2,7.2,0,0,0,5.48-2.46,9.82,9.82,0,0,0,2.37-5.92,26,26,0,0,0-.84-6.86,84.84,84.84,0,0,0-7.93-21.57A85.24,85.24,0,0,0,294.93,77.1a25.72,25.72,0,0,0-6.35-2.71,9.79,9.79,0,0,0-6.35.63,7.18,7.18,0,0,0-3.88,4.57,7.43,7.43,0,0,0,1.26,5.88c2,3.85,7.22,2.38,10.59-.28a23.16,23.16,0,0,0,7.68-10.82,26.74,26.74,0,0,0,1.06-13.25,35.24,35.24,0,0,0-1.85-6.52c-.87-2.23-1.75-4.46-2.69-6.66L290.62,39l-9.68-.52c-2.39-.13-4.78-.2-7.18-.27a35.2,35.2,0,0,0-6.75.48,26.62,26.62,0,0,0-12.11,5.5,23.27,23.27,0,0,0-7.57,10.89c-1.35,4.08-1,9.46,3.33,10.06a7.41,7.41,0,0,0,6-.81,7.22,7.22,0,0,0,3-5.2A9.83,9.83,0,0,0,258,53a25.55,25.55,0,0,0-4.71-5.05,84.71,84.71,0,0,0-19.09-12.8,84.62,84.62,0,0,0-23-.12,25.67,25.67,0,0,0-6.74,1.54,9.75,9.75,0,0,0-4.77,4.24,7.19,7.19,0,0,0-.45,6,7.44,7.44,0,0,0,4.48,4c3.9,1.92,7.23-2.32,8.4-6.45A23.24,23.24,0,0,0,212,31a26.7,26.7,0,0,0-6.93-11.35,35.64,35.64,0,0,0-5.32-4.18c-2-1.29-4-2.58-6.1-3.81l-8.3-5L177.24,12c-2,1.3-4,2.65-6,4a35.69,35.69,0,0,0-5.18,4.36,26.74,26.74,0,0,0-6.57,11.56,23.32,23.32,0,0,0,.29,13.27c1.3,4.09,4.77,8.22,8.6,6.17a7.43,7.43,0,0,0,4.35-4.15,7.21,7.21,0,0,0-.64-6,9.82,9.82,0,0,0-4.9-4.08,25.49,25.49,0,0,0-6.79-1.32,84.63,84.63,0,0,0-23,.87A84.83,84.83,0,0,0,118.8,50.08a25.81,25.81,0,0,0-4.55,5.2,9.79,9.79,0,0,0-1.36,6.23A7.18,7.18,0,0,0,116,66.62a7.42,7.42,0,0,0,6,.61c4.28-.74,4.49-6.13,3-10.16a23.33,23.33,0,0,0-7.92-10.64,26.84,26.84,0,0,0-12.28-5.11,35.5,35.5,0,0,0-6.77-.25c-2.39.14-4.78.29-7.17.49l-9.65.85-3.49,9c-.87,2.23-1.67,4.49-2.48,6.75a35.26,35.26,0,0,0-1.63,6.57A26.67,26.67,0,0,0,75.13,78a23.18,23.18,0,0,0,8,10.56c3.46,2.55,8.7,3.85,10.6-.06a7.44,7.44,0,0,0,1.07-5.91,7.18,7.18,0,0,0-4-4.45,9.75,9.75,0,0,0-6.36-.42,25.82,25.82,0,0,0-6.27,2.92,84.63,84.63,0,0,0-18.07,14.2,85,85,0,0,0-7.22,21.82,26.19,26.19,0,0,0-.62,6.88,9.8,9.8,0,0,0,2.57,5.85,7.17,7.17,0,0,0,5.54,2.27,7.44,7.44,0,0,0,5.21-3c3-3.11,0-7.59-3.55-10a23.25,23.25,0,0,0-12.66-4,26.73,26.73,0,0,0-12.93,3.09,35.23,35.23,0,0,0-5.63,3.77c-1.85,1.52-3.69,3-5.5,4.61L18,132.51l2.49,9.37c.61,2.32,1.29,4.61,2,6.91A35.88,35.88,0,0,0,25,155.07a26.84,26.84,0,0,0,9,9.81,23.22,23.22,0,0,0,12.71,3.83c4.29,0,9.29-2,8.53-6.27A7.41,7.41,0,0,0,52.57,157a7.21,7.21,0,0,0-5.87-1.23,9.82,9.82,0,0,0-5.4,3.4,25.77,25.77,0,0,0-3.35,6,84.94,84.94,0,0,0-6.27,22.11,84.9,84.9,0,0,0,7,21.9,26,26,0,0,0,3.55,5.93,9.75,9.75,0,0,0,5.5,3.22A7.15,7.15,0,0,0,53.54,217a7.4,7.4,0,0,0,2.44-5.5c.62-4.3-4.45-6.16-8.74-6a23.25,23.25,0,0,0-12.57,4.24A26.81,26.81,0,0,0,26,219.82a35.42,35.42,0,0,0-2.33,6.35c-.6,2.32-1.2,4.64-1.74,7l-2.19,9.44,7.52,6.11c1.86,1.52,3.76,3,5.65,4.44a35.58,35.58,0,0,0,5.75,3.59,26.67,26.67,0,0,0,13,2.66A23.18,23.18,0,0,0,64.23,255c3.49-2.51,6.35-7.08,3.22-10.1a7.47,7.47,0,0,0-5.3-2.85,7.17,7.17,0,0,0-5.47,2.46,9.78,9.78,0,0,0-2.37,5.92,26,26,0,0,0,.84,6.86,84.67,84.67,0,0,0,7.93,21.58A85,85,0,0,0,81.6,292.51,25.56,25.56,0,0,0,88,295.22a9.79,9.79,0,0,0,6.35-.63A7.18,7.18,0,0,0,98.18,290a7.43,7.43,0,0,0-1.26-5.88c-2-3.85-7.22-2.37-10.6.28a23.22,23.22,0,0,0-7.67,10.82,26.77,26.77,0,0,0-1.06,13.26A35.33,35.33,0,0,0,79.43,315c.88,2.23,1.76,4.46,2.69,6.66Z"/><path class="cls-2" d="M85.1,331.75a42.79,42.79,0,0,0,5.16.76A62.42,62.42,0,0,0,111,330.63a1.67,1.67,0,0,1,.8,3.24l-.11,0C104.6,335.18,97.26,336,90,335a53.66,53.66,0,0,1-6.37-1.19,55.17,55.17,0,0,1-3.28-5.59c-3.33-6.51-5.1-13.68-6.3-20.79,0,0,0-.07,0-.11a1.66,1.66,0,1,1,3.31-.34,62.47,62.47,0,0,0,5.28,20.14A42.36,42.36,0,0,0,85.1,331.75Z"/><path class="cls-3" d="M18.43,243.05a44.3,44.3,0,0,0,3.73,3.65A62.58,62.58,0,0,0,40,257.37a1.66,1.66,0,1,1-1.25,3.08l-.1,0c-6.5-3.13-12.89-6.82-18.22-11.83a53.59,53.59,0,0,1-4.46-4.7,55.23,55.23,0,0,1,.63-6.45c1.14-7.23,3.92-14.07,7.13-20.53l.05-.09a1.66,1.66,0,1,1,2.88,1.66,62.57,62.57,0,0,0-7.56,19.4A43,43,0,0,0,18.43,243.05Z"/><path class="cls-4" d="M16.63,132.1a42.45,42.45,0,0,0,.88,5.14,62.48,62.48,0,0,0,8.19,19.15,1.67,1.67,0,0,1-2.83,1.76.47.47,0,0,1-.05-.1C19.4,151.71,16.39,145,15,137.77a57.23,57.23,0,0,1-.85-6.42,53.86,53.86,0,0,1,4.31-4.85c5.16-5.18,11.44-9.08,17.83-12.41l.1,0a1.66,1.66,0,0,1,1.35,3,62.2,62.2,0,0,0-17.52,11.25A43,43,0,0,0,16.63,132.1Z"/><path class="cls-5" d="M80.39,41.28A43.31,43.31,0,0,0,78.07,46a62.46,62.46,0,0,0-4.62,20.3A1.66,1.66,0,0,1,70.13,66a.45.45,0,0,1,0-.11c1-7.14,2.5-14.36,5.62-21a56.13,56.13,0,0,1,3.09-5.7,53.5,53.5,0,0,1,6.34-1.38c7.22-1.16,14.59-.63,21.71.43l.11,0a1.66,1.66,0,0,1-.69,3.25,62.51,62.51,0,0,0-20.79-1.19A42.56,42.56,0,0,0,80.39,41.28Z"/><path class="cls-6" d="M185.36,5.28a44.31,44.31,0,0,0-4.63,2.43,62.63,62.63,0,0,0-15.68,13.7,1.65,1.65,0,0,1-2.34.2,1.66,1.66,0,0,1-.2-2.34l.07-.08C167.56,14,173.05,9,179.46,5.52a54.06,54.06,0,0,1,5.85-2.79,53.31,53.31,0,0,1,5.94,2.59c6.53,3.31,12.17,8.08,17.32,13.12l.07.08a1.66,1.66,0,0,1-2.47,2.23A62.35,62.35,0,0,0,190.06,7.56,43.31,43.31,0,0,0,185.36,5.28Z"/><path class="cls-7" d="M291.43,37.86a42.66,42.66,0,0,0-5.17-.76A62.47,62.47,0,0,0,265.52,39a1.67,1.67,0,0,1-.79-3.24l.1,0c7.09-1.29,14.44-2.06,21.7-1.14a53.66,53.66,0,0,1,6.37,1.19,55.17,55.17,0,0,1,3.28,5.59c3.33,6.51,5.1,13.68,6.3,20.79,0,0,0,.07,0,.11a1.66,1.66,0,1,1-3.31.35,62.46,62.46,0,0,0-5.28-20.15A42.36,42.36,0,0,0,291.43,37.86Z"/><path class="cls-8" d="M358.1,126.56a43,43,0,0,0-3.74-3.65,62.4,62.4,0,0,0-17.87-10.67,1.66,1.66,0,1,1,1.25-3.08l.1,0c6.49,3.13,12.89,6.82,18.22,11.83a55.12,55.12,0,0,1,4.46,4.7,53.53,53.53,0,0,1-.64,6.46c-1.13,7.22-3.91,14.06-7.12,20.52a.41.41,0,0,0-.05.09,1.66,1.66,0,1,1-2.88-1.66,62.57,62.57,0,0,0,7.56-19.4A43,43,0,0,0,358.1,126.56Z"/><path class="cls-9" d="M359.9,237.51a42.45,42.45,0,0,0-.88-5.14,62.48,62.48,0,0,0-8.19-19.15,1.66,1.66,0,1,1,2.83-1.75.73.73,0,0,1,0,.09c3.42,6.34,6.42,13.09,7.79,20.28a54.87,54.87,0,0,1,.84,6.43,56.69,56.69,0,0,1-4.3,4.84c-5.17,5.18-11.44,9.08-17.83,12.41l-.1,0a1.66,1.66,0,0,1-1.35-3,62.2,62.2,0,0,0,17.52-11.25A43,43,0,0,0,359.9,237.51Z"/><path class="cls-10" d="M296.14,328.33a43.23,43.23,0,0,0,2.31-4.68,62.48,62.48,0,0,0,4.63-20.3,1.66,1.66,0,1,1,3.32.24s0,.08,0,.11c-1,7.14-2.5,14.36-5.62,21a56.22,56.22,0,0,1-3.1,5.7,55.44,55.44,0,0,1-6.33,1.39c-7.22,1.15-14.59.62-21.72-.44l-.1,0a1.66,1.66,0,1,1,.69-3.25,62.78,62.78,0,0,0,20.79,1.2A43.31,43.31,0,0,0,296.14,328.33Z"/><path class="cls-11" d="M191.17,364.33a44.31,44.31,0,0,0,4.63-2.43,62.39,62.39,0,0,0,15.67-13.7,1.66,1.66,0,0,1,2.55,2.14l-.07.08c-5,5.21-10.47,10.16-16.89,13.68a54.08,54.08,0,0,1-5.85,2.78,54,54,0,0,1-5.93-2.59c-6.53-3.31-12.17-8.08-17.32-13.12l-.08-.08a1.67,1.67,0,0,1,2.48-2.23,62.19,62.19,0,0,0,16.11,13.19A43.31,43.31,0,0,0,191.17,364.33Z"/><path class="cls-12" d="M83,334.75a1,1,0,0,1-.14.83,1.09,1.09,0,0,1-.79.5,1.1,1.1,0,0,1,.2-.92A1.05,1.05,0,0,1,83,334.75Z"/><path class="cls-13" d="M15,244.23a1.09,1.09,0,0,1-.61.6,1.08,1.08,0,0,1-.93-.07,1.07,1.07,0,0,1,.69-.62A1.08,1.08,0,0,1,15,244.23Z"/><path class="cls-14" d="M13.13,131a1.1,1.1,0,0,1-.84.13,1.09,1.09,0,0,1-.71-.61,1.08,1.08,0,0,1,.93-.09A1.06,1.06,0,0,1,13.13,131Z"/><path class="cls-15" d="M78.19,38.35a1.07,1.07,0,0,1-.75-.39,1,1,0,0,1-.22-.91,1.09,1.09,0,0,1,.8.47A1.05,1.05,0,0,1,78.19,38.35Z"/><path class="cls-16" d="M185.3,1.62a1.06,1.06,0,0,1-.38-.75,1.1,1.1,0,0,1,.35-.87,1.08,1.08,0,0,1,0,1.62Z"/><path class="cls-17" d="M293.53,34.86a1.12,1.12,0,0,1,.14-.83,1.11,1.11,0,0,1,.8-.5,1.1,1.1,0,0,1-.2.92A1.07,1.07,0,0,1,293.53,34.86Z"/><path class="cls-18" d="M361.56,125.38a1.12,1.12,0,0,1,.61-.6,1.08,1.08,0,0,1,.93.07,1.1,1.1,0,0,1-1.54.53Z"/><path class="cls-19" d="M363.4,238.59a1,1,0,0,1,.83-.12,1.07,1.07,0,0,1,.72.6,1.08,1.08,0,0,1-.93.09A1,1,0,0,1,363.4,238.59Z"/><path class="cls-20" d="M298.34,331.26a1.07,1.07,0,0,1,.75.39.51.51,0,1,1-.59.44A1.08,1.08,0,0,1,298.34,331.26Z"/><path class="cls-21" d="M191.23,368a1.06,1.06,0,0,1,.38.75,1.1,1.1,0,0,1-.35.87,1.08,1.08,0,0,1,0-1.62Z"/><path class="cls-22" d="M133,364.8c-13.16-7.3-23.3-18.84-33.23-30.14-3.17-3.6-6.25-7.11-9.38-10.44-4.19-1.81-8.53-3.52-13-5.27-14-5.51-28.3-11.13-39.63-21C31.4,284.29,30,269,28.58,254c-.44-4.78-.88-9.43-1.45-14-2.32-3.92-4.84-7.86-7.42-11.91C11.62,215.47,3.36,202.52,0,187.86c2.88-14.77,10.72-28,18.4-40.92,2.44-4.13,4.83-8.14,7-12.14.43-4.55.71-9.21,1-14,.91-15,1.84-30.35,7.74-44.19,11-10.25,25.12-16.33,38.94-22.29,4.4-1.89,8.69-3.74,12.82-5.69,3-3.42,6-7,9-10.73,9.56-11.62,19.33-23.48,32.24-31.2,14.93-1.83,29.92,1.55,44.6,4.85,4.67,1,9.23,2.08,13.71,2.93,4.46-1,9-2.17,13.62-3.37,14.57-3.78,29.44-7.64,44.42-6.3,13.15,7.3,23.3,18.84,33.23,30.14,3.16,3.61,6.25,7.12,9.38,10.44,4.18,1.81,8.53,3.52,13,5.27,14,5.51,28.3,11.13,39.64,21,6.35,13.64,7.77,28.93,9.17,43.91.44,4.78.87,9.43,1.45,14,2.32,3.92,4.84,7.86,7.42,11.91,8.09,12.68,16.35,25.63,19.71,40.3-2.88,14.76-10.72,28-18.4,40.91-2.45,4.13-4.83,8.14-7,12.14-.43,4.55-.72,9.21-1,14-.91,15-1.84,30.35-7.74,44.19-11,10.25-25.12,16.33-38.94,22.29-4.4,1.89-8.69,3.74-12.82,5.69-3,3.42-6,7-9,10.73-9.57,11.62-19.33,23.48-32.24,31.2-14.93,1.83-29.92-1.55-44.6-4.85-4.68-1.05-9.23-2.08-13.72-2.93-4.45,1-9,2.17-13.61,3.37C162.84,362.28,148,366.14,133,364.8ZM90.87,323.53c3.17,3.37,6.3,6.93,9.51,10.58,9.84,11.19,19.89,22.61,32.86,29.86,14.81,1.29,29.54-2.53,44-6.27,4.71-1.22,9.29-2.41,13.81-3.42,4.55.86,9.17,1.9,13.91,3,14.54,3.27,29.38,6.61,44.14,4.85,12.74-7.67,22.41-19.41,31.88-30.92,3.09-3.75,6.1-7.41,9.16-10.88,4.19-2,8.54-3.85,13-5.78,13.69-5.9,27.65-11.92,38.56-22,5.8-13.69,6.72-28.87,7.62-43.74.29-4.86.57-9.59,1-14.19,2.22-4.07,4.63-8.14,7.12-12.32,7.6-12.82,15.36-25.9,18.24-40.48-3.35-14.48-11.53-27.31-19.55-39.87-2.61-4.1-5.16-8.09-7.51-12.08-.59-4.59-1-9.31-1.48-14.15-1.38-14.83-2.79-30-9-43.47-11.23-9.74-25.38-15.31-39.25-20.76-4.53-1.78-8.94-3.52-13.18-5.36-3.18-3.37-6.3-6.92-9.52-10.58-9.83-11.19-19.88-22.61-32.85-29.86-14.81-1.28-29.54,2.53-44,6.27-4.71,1.22-9.29,2.41-13.81,3.42-4.55-.86-9.17-1.9-13.92-3-14.53-3.27-29.38-6.61-44.13-4.85-12.74,7.67-22.41,19.41-31.88,30.92-3.09,3.75-6.1,7.41-9.16,10.88-4.19,2-8.54,3.85-13,5.78C59.74,61,45.77,67,34.87,77.11c-5.8,13.69-6.72,28.87-7.62,43.74-.29,4.86-.58,9.59-1,14.19-2.22,4.07-4.64,8.14-7.12,12.32-7.6,12.82-15.36,25.9-18.25,40.48,3.36,14.48,11.54,27.31,19.55,39.87,2.62,4.1,5.17,8.09,7.52,12.08.59,4.59,1,9.31,1.48,14.15,1.38,14.83,2.79,30,9,43.47,11.22,9.75,25.38,15.31,39.25,20.76C82.21,320,86.62,321.69,90.87,323.53Z"/><path class="cls-23" d="M173.93,311.37A127.37,127.37,0,1,1,314.82,199.14,127.52,127.52,0,0,1,173.93,311.37ZM202.18,61.89a123.7,123.7,0,1,0,109,136.84A123.83,123.83,0,0,0,202.18,61.89Z"/><path class="cls-24" d="M261.33,227.3l.14-.13c22.22-19.43,17.6-54.9,17.6-54.9-1.25,6.86-18.92,15.92-38.9,20.47,8.15-12.77,13.84-31.68,13.29-59.66-7.15,0-20.44,6.7-32.44,16.87-3.53-16.29-16.13-32.82-32.5-50.42-6,3.92-26.71,27.31-31.82,51.45-12.33-10.77-26.29-17.92-33.63-17.9,0,25.15,3.5,44.88,13.05,59.59-19.83-4.57-37.46-13.54-38.67-20.4-2.42,9.79.62,38.79,17.75,55-9.36,3.57-18.28,7.87-19.28,9.27,13.67,24.88,35.71,21.57,54.22,12.14-7.52-3.91-6.44-9.88-5.88-12.82.42-1.31.75-2.41-.36-1.7-2.75,1.39-4.55,1.75-5.89,1.58-3.23-.38-3.83-3.78-9-2.95-.08-2.64,5.13-1.62,5.13-1.62-.92-2.11-.64-7.46-.24-9.14l1.3-.22c1.54,3.15,7.34,5.6,7.56,5.44,7.87,3,7.85-1.81,14.62-6.94a19.79,19.79,0,0,0,5.06-5.94c.19-.32.3-.53.3-.53V190.72c-1-4.8,2.31-7.86,6.93-9.91l.24-.1a120,120,0,0,1,12.21-3.57c-.3-2,.86-7.3-1.28-8.62-1.83,1-3.41-6.65-1.71-6.66-1.08-10.5,2.69-14.39,9.36-14.43s10.43,3.92,9.35,14.43c1.71,0,.13,7.64-1.71,6.66-2.13,1.33-1,6.62-1.28,8.62a118.44,118.44,0,0,1,12,3.48l.23.09c4.75,2,8.21,5,7.19,10v23.14l.41.73c1,2.39,6.09,6.91,9.38,9.8l2.75,2.52h0c1.78,2.7,11.42.71,14.91-5l1.41.26c.33,1.6.65,7-.27,9,0,0,5.21-1,5.13,1.62-5.12-.83-5.73,2.57-9,2.95-1.35.17-3.14-.19-5.89-1.58-1.06-.68-.76.4-.36,1.7v0c.57,3,1.64,9-6.14,12.92,18.47,9.33,40.36,12.49,54-12.27C279.81,235.26,270.75,230.89,261.33,227.3Z"/><path class="cls-25" d="M216.71,230.78l-.49-.32a21.6,21.6,0,0,1-7.74-9.3h0a26.34,26.34,0,0,1-1.76-9.41.45.45,0,0,1,0,.08,8.9,8.9,0,0,0-.23,1.14c0,.13-.05.26-.07.38a39.55,39.55,0,0,0-.74,9.5c-.1,5.22,1.58,8.78,4.28,11l.19.16c2.67,2.33,6.6,3.31,12,2.44l.55-.09c.28,0,.55-.09.83-.15a8,8,0,0,0,3.93-1.07A36.64,36.64,0,0,1,216.71,230.78Z"/><path class="cls-26" d="M175.53,218.5h0a22.78,22.78,0,0,0-.21-2.36c0-.35-.09-.67-.12-.94a.77.77,0,0,1,0-.15q-.06-.47-.12-.87c0-.1,0-.2,0-.3-.12-.8-.23-1.46-.33-1.89a.14.14,0,0,0,0-.06.13.13,0,0,0,0-.06v0c0-.15,0-.2,0-.13v.07c0,.12,0,.4,0,.82v.07a35.5,35.5,0,0,1-.51,4.45,1.16,1.16,0,0,0,0,.18,24.65,24.65,0,0,1-4.54,9.12,1.15,1.15,0,0,1-.14.17,23.34,23.34,0,0,1-5.17,4.4,32.56,32.56,0,0,1-10.32,4.1l.05,0,.09,0,.19.06.13,0c10.29,3.34,21.82,1.15,21.22-12.85A26.85,26.85,0,0,0,175.53,218.5Z"/></g></g></svg>