<svg xmlns="http://www.w3.org/2000/svg" xmlns:xlink="http://www.w3.org/1999/xlink" viewBox="0 0 851.67 433.03"><defs><style>.cls-1{fill:none;}.cls-2{fill:url(#New_Gradient_Swatch_1);}.cls-3{fill:url(#New_Gradient_Swatch_1-2);}.cls-4{fill:url(#New_Gradient_Swatch_1-3);}.cls-5{fill:url(#New_Gradient_Swatch_1-4);}.cls-6{fill:url(#New_Gradient_Swatch_1-5);}.cls-7{fill:url(#New_Gradient_Swatch_1-6);}.cls-8{fill:url(#New_Gradient_Swatch_1-7);}.cls-9{fill:url(#New_Gradient_Swatch_1-8);}.cls-10{fill:url(#New_Gradient_Swatch_1-9);}.cls-11{fill:url(#New_Gradient_Swatch_1-10);}.cls-12{fill:url(#New_Gradient_Swatch_1-11);}.cls-13{fill:url(#New_Gradient_Swatch_1-12);}.cls-14{fill:url(#New_Gradient_Swatch_1-13);}.cls-15{fill:url(#New_Gradient_Swatch_1-14);}.cls-16{fill:url(#New_Gradient_Swatch_1-15);}.cls-17{fill:url(#New_Gradient_Swatch_1-16);}.cls-18{fill:url(#New_Gradient_Swatch_1-17);}.cls-19{fill:url(#New_Gradient_Swatch_1-18);}.cls-20{fill:url(#New_Gradient_Swatch_1-19);}.cls-21{fill:url(#New_Gradient_Swatch_1-20);}.cls-22{fill:url(#New_Gradient_Swatch_1-21);}.cls-23{fill:url(#New_Gradient_Swatch_1-22);}.cls-24{fill:url(#New_Gradient_Swatch_1-23);}.cls-25{fill:url(#New_Gradient_Swatch_1-24);}.cls-26{fill:url(#linear-gradient);}.cls-27{fill:url(#linear-gradient-2);}.cls-28{clip-path:url(#clip-path);}.cls-29{fill:#f9b233;}</style><linearGradient id="New_Gradient_Swatch_1" x1="77.21" y1="360.28" x2="307.97" y2="127.44" gradientTransform="translate(29.13 -19.61) rotate(6.46)" gradientUnits="userSpaceOnUse"><stop offset="0" stop-color="#a55a0b"/><stop offset="0.02" stop-color="#b06a1a"/><stop offset="0.06" stop-color="#c9913d"/><stop offset="0.1" stop-color="#deb059"/><stop offset="0.15" stop-color="#ecc66d"/><stop offset="0.19" stop-color="#f5d379"/><stop offset="0.22" stop-color="#f8d87d"/><stop offset="0.27" stop-color="#f4d278"/><stop offset="0.34" stop-color="#e9c269"/><stop offset="0.41" stop-color="#d7a850"/><stop offset="0.45" stop-color="#c9933d"/><stop offset="0.57" stop-color="#c37b1b"/><stop offset="0.75" stop-color="#e7ba5d"/><stop offset="0.84" stop-color="#f8d87d"/><stop offset="0.86" stop-color="#f4d377"/><stop offset="0.9" stop-color="#eac367"/><stop offset="0.94" stop-color="#d9a94d"/><stop offset="0.98" stop-color="#c18628"/><stop offset="1" stop-color="#b47214"/></linearGradient><linearGradient id="New_Gradient_Swatch_1-2" x1="109.74" y1="392.52" x2="340.5" y2="159.68" xlink:href="#New_Gradient_Swatch_1"/><linearGradient id="New_Gradient_Swatch_1-3" x1="37.42" y1="320.84" x2="268.18" y2="88" xlink:href="#New_Gradient_Swatch_1"/><linearGradient id="New_Gradient_Swatch_1-4" x1="-20.33" y1="263.61" x2="210.43" y2="30.77" xlink:href="#New_Gradient_Swatch_1"/><linearGradient id="New_Gradient_Swatch_1-5" x1="-45.09" y1="239.07" x2="185.67" y2="6.23" xlink:href="#New_Gradient_Swatch_1"/><linearGradient id="New_Gradient_Swatch_1-6" x1="-15.53" y1="268.37" x2="215.23" y2="35.53" xlink:href="#New_Gradient_Swatch_1"/><linearGradient id="New_Gradient_Swatch_1-7" x1="44.68" y1="328.04" x2="275.44" y2="95.19" xlink:href="#New_Gradient_Swatch_1"/><linearGradient id="New_Gradient_Swatch_1-8" x1="117" y1="399.71" x2="347.76" y2="166.87" xlink:href="#New_Gradient_Swatch_1"/><linearGradient id="New_Gradient_Swatch_1-9" x1="174.75" y1="456.94" x2="405.51" y2="224.11" xlink:href="#New_Gradient_Swatch_1"/><linearGradient id="New_Gradient_Swatch_1-10" x1="199.51" y1="481.49" x2="430.27" y2="248.65" xlink:href="#New_Gradient_Swatch_1"/><linearGradient id="New_Gradient_Swatch_1-11" x1="169.94" y1="452.18" x2="400.7" y2="219.34" xlink:href="#New_Gradient_Swatch_1"/><linearGradient id="New_Gradient_Swatch_1-12" x1="113.52" y1="396.27" x2="344.27" y2="163.45" xlink:href="#New_Gradient_Swatch_1"/><linearGradient id="New_Gradient_Swatch_1-13" x1="32.79" y1="316.26" x2="263.53" y2="83.43" xlink:href="#New_Gradient_Swatch_1"/><linearGradient id="New_Gradient_Swatch_1-14" x1="-30.98" y1="253.06" x2="199.8" y2="20.19" xlink:href="#New_Gradient_Swatch_1"/><linearGradient id="New_Gradient_Swatch_1-15" x1="-53.4" y1="230.79" x2="177.31" y2="-2" xlink:href="#New_Gradient_Swatch_1"/><linearGradient id="New_Gradient_Swatch_1-16" x1="-26.02" y1="258.06" x2="204.8" y2="25.17" xlink:href="#New_Gradient_Swatch_1"/><linearGradient id="New_Gradient_Swatch_1-17" x1="40.91" y1="324.26" x2="271.65" y2="91.44" xlink:href="#New_Gradient_Swatch_1"/><linearGradient id="New_Gradient_Swatch_1-18" x1="121.64" y1="404.28" x2="352.39" y2="171.46" xlink:href="#New_Gradient_Swatch_1"/><linearGradient id="New_Gradient_Swatch_1-19" x1="185.39" y1="467.51" x2="416.16" y2="234.66" xlink:href="#New_Gradient_Swatch_1"/><linearGradient id="New_Gradient_Swatch_1-20" x1="207.82" y1="489.76" x2="438.63" y2="256.88" xlink:href="#New_Gradient_Swatch_1"/><linearGradient id="New_Gradient_Swatch_1-21" x1="180.39" y1="462.53" x2="411.13" y2="229.72" xlink:href="#New_Gradient_Swatch_1"/><linearGradient id="New_Gradient_Swatch_1-22" x1="77.21" y1="360.28" x2="307.97" y2="127.44" xlink:href="#New_Gradient_Swatch_1"/><linearGradient id="New_Gradient_Swatch_1-23" x1="77.21" y1="360.28" x2="307.97" y2="127.44" xlink:href="#New_Gradient_Swatch_1"/><linearGradient id="New_Gradient_Swatch_1-24" x1="114.47" y1="323.59" x2="258.61" y2="202.64" gradientTransform="matrix(1, 0, 0, 1, 0, 0)" xlink:href="#New_Gradient_Swatch_1"/><linearGradient id="linear-gradient" x1="199.83" y1="301.76" x2="227.04" y2="278.16" gradientUnits="userSpaceOnUse"><stop offset="0.12" stop-color="#f8d87d"/><stop offset="0.19" stop-color="#f4d377"/><stop offset="0.29" stop-color="#eac367"/><stop offset="0.39" stop-color="#d9a94d"/><stop offset="0.5" stop-color="#c18628"/><stop offset="0.55" stop-color="#b47214"/></linearGradient><linearGradient id="linear-gradient-2" x1="151.12" y1="305.33" x2="201.31" y2="261.53" gradientUnits="userSpaceOnUse"><stop offset="0.22" stop-color="#f8d87d"/><stop offset="0.27" stop-color="#f4d278"/><stop offset="0.34" stop-color="#e9c269"/><stop offset="0.41" stop-color="#d7a850"/><stop offset="0.45" stop-color="#c9933d"/><stop offset="0.57" stop-color="#c37b1b"/><stop offset="0.75" stop-color="#e7ba5d"/><stop offset="0.84" stop-color="#f8d87d"/><stop offset="0.86" stop-color="#f4d377"/><stop offset="0.9" stop-color="#eac367"/><stop offset="0.94" stop-color="#d9a94d"/><stop offset="0.98" stop-color="#c18628"/><stop offset="1" stop-color="#b47214"/></linearGradient><clipPath id="clip-path"><path class="cls-1" d="M437.84,249.55a47.09,47.09,0,0,1-17.29-2.93,46.11,46.11,0,0,1-14.37-9.31,6.3,6.3,0,0,1-1.53-2,5.53,5.53,0,0,1-.6-2.52,5.46,5.46,0,0,1,1.53-3.8,5,5,0,0,1,3.79-1.66,4.62,4.62,0,0,1,3.33,1.46,37.73,37.73,0,0,0,11.24,7.72,33.47,33.47,0,0,0,13.64,2.66,28.16,28.16,0,0,0,10.51-1.86,18.42,18.42,0,0,0,7.45-5.19,11.67,11.67,0,0,0,2.8-7.72,12.94,12.94,0,0,0-3-8.78,22.46,22.46,0,0,0-8.25-5.72,79.37,79.37,0,0,0-12.17-4,79.47,79.47,0,0,1-11.24-3.53,33.35,33.35,0,0,1-8.92-5.19,21.18,21.18,0,0,1-5.85-7.58A24.93,24.93,0,0,1,406.84,179a22.33,22.33,0,0,1,4-13.24A26.38,26.38,0,0,1,422,157a39.36,39.36,0,0,1,16.29-3.2,44.35,44.35,0,0,1,15.37,2.66,29.79,29.79,0,0,1,11.64,7.32c1.78,1.69,2.67,3.37,2.67,5.06a4.94,4.94,0,0,1-1.67,3.52,5.22,5.22,0,0,1-3.79,1.67,4.18,4.18,0,0,1-2.66-.94,22.79,22.79,0,0,0-5.79-4.52,36.23,36.23,0,0,0-7.58-3.19,28.79,28.79,0,0,0-8.19-1.2,29.72,29.72,0,0,0-10.77,1.8,16.84,16.84,0,0,0-7.25,5,11.82,11.82,0,0,0-2.6,7.71,12,12,0,0,0,2.93,8.32,21.49,21.49,0,0,0,7.85,5.32,83.4,83.4,0,0,0,10.91,3.66,106,106,0,0,1,12,3.66,36.66,36.66,0,0,1,9.51,5.12,20.55,20.55,0,0,1,6.19,7.79,27.6,27.6,0,0,1,2.2,11.64,21.75,21.75,0,0,1-4.13,13,28.25,28.25,0,0,1-11.24,9A37.42,37.42,0,0,1,437.84,249.55Zm81.43-80.63L488,245a5.17,5.17,0,0,1-1.86,2.59,4.57,4.57,0,0,1-2.79,1,4.66,4.66,0,0,1-3.73-1.4,5.46,5.46,0,0,1-1.33-3.26,8.1,8.1,0,0,1,.27-2L513,158.28a6.11,6.11,0,0,1,2.19-2.8,4.9,4.9,0,0,1,3.13-.8,5.61,5.61,0,0,1,3.13.93,4.83,4.83,0,0,1,1.93,2.67l34.32,82.89a6,6,0,0,1,.4,2.13,5,5,0,0,1-1.59,3.86,5.23,5.23,0,0,1-3.6,1.46,5,5,0,0,1-3.06-1,6,6,0,0,1-2-2.73l-31.67-76.1Zm-24.61,54.42L499.18,213H538.7l2,10.38Zm69.45-58a5.5,5.5,0,0,1-3.86-1.47,4.82,4.82,0,0,1-1.59-3.72,4.63,4.63,0,0,1,1.59-3.66,5.68,5.68,0,0,1,3.86-1.4H626a5.49,5.49,0,0,1,3.86,1.47,4.79,4.79,0,0,1,1.6,3.72,4.61,4.61,0,0,1-1.6,3.66,5.66,5.66,0,0,1-3.86,1.4ZM595,248.22a5.35,5.35,0,0,1-5.59-5.45v-82.1H600.7v82.1a5.25,5.25,0,0,1-1.59,3.85A5.58,5.58,0,0,1,595,248.22ZM716.19,155a5.69,5.69,0,0,1,4,1.46,4.69,4.69,0,0,1,1.6,3.6,6.87,6.87,0,0,1-.53,2.52l-34.73,82.23a5.84,5.84,0,0,1-2.19,2.6,5.67,5.67,0,0,1-3,.86,6.47,6.47,0,0,1-2.86-1,5.06,5.06,0,0,1-2.06-2.46L642,162.67a4.84,4.84,0,0,1-.4-1.2,6.66,6.66,0,0,1-.13-1.33,4.72,4.72,0,0,1,1.79-3.86,5.65,5.65,0,0,1,3.53-1.46q3.59,0,5.19,3.72l31.8,75.84h-3.06l30.6-76Q712.86,154.95,716.19,155Zm32.6,87.82a5.17,5.17,0,0,1-1.66,3.85,5.49,5.49,0,0,1-3.93,1.6,5.35,5.35,0,0,1-5.59-5.45V160.54a5.23,5.23,0,0,1,1.6-3.86,5.55,5.55,0,0,1,4.12-1.6,5.46,5.46,0,0,1,5.46,5.46Zm28.87,5.45a5.35,5.35,0,0,1-5.59-5.45V160.54a5.23,5.23,0,0,1,1.6-3.86,5.55,5.55,0,0,1,4.12-1.6,5.11,5.11,0,0,1,4,1.6,5.49,5.49,0,0,1,1.47,3.86v82.23a5.35,5.35,0,0,1-5.59,5.45ZM837.4,155a4.53,4.53,0,0,1,3.59,1.73,5.49,5.49,0,0,1,1.47,3.59,5,5,0,0,1-1.6,3.59l-58.81,55.49L781.12,207l52.16-50A5.52,5.52,0,0,1,837.4,155Zm.4,93.54a4.57,4.57,0,0,1-3.86-2l-35.52-45,8.25-8.38,35.92,46.17a5.85,5.85,0,0,1,1.33,3.59,4.79,4.79,0,0,1-2,4.12A6.86,6.86,0,0,1,837.8,248.49Zm-355.34,37a2.61,2.61,0,0,1,2,.83,2.68,2.68,0,0,1,.79,1.92,3.57,3.57,0,0,1-.1.89,2.79,2.79,0,0,1-.38.83l-16,22.27.9-3.37V331a2.82,2.82,0,0,1-.79,2,2.53,2.53,0,0,1-1.89.82,2.67,2.67,0,0,1-2-.82,2.78,2.78,0,0,1-.79-2V309.34l.41,1.86-15.4-20.9a4.49,4.49,0,0,1-.61-1.06,2.68,2.68,0,0,1-.21-1,2.37,2.37,0,0,1,1-2,3.19,3.19,0,0,1,1.95-.76,2.68,2.68,0,0,1,2.27,1.24l14.23,19.52-1.31-.21,13.61-19.24A2.85,2.85,0,0,1,482.46,285.49Zm51.62,24.26a27.17,27.17,0,0,1-1.72,9.8,24.06,24.06,0,0,1-4.84,7.87,22,22,0,0,1-7.36,5.22,24.08,24.08,0,0,1-18.56,0,22,22,0,0,1-7.35-5.22,23.49,23.49,0,0,1-4.81-7.87,29.23,29.23,0,0,1,0-19.59,23.49,23.49,0,0,1,4.81-7.87,22,22,0,0,1,7.35-5.22,24.08,24.08,0,0,1,18.56,0,22,22,0,0,1,7.36,5.22,24.06,24.06,0,0,1,4.84,7.87A27.15,27.15,0,0,1,534.08,309.75Zm-6,0a21.72,21.72,0,0,0-2.2-9.93,17,17,0,0,0-6.08-6.84A17.4,17.4,0,0,0,502,293a17,17,0,0,0-6.08,6.81,23.6,23.6,0,0,0,0,19.9,16.82,16.82,0,0,0,6.08,6.83,17.34,17.34,0,0,0,17.87,0,16.89,16.89,0,0,0,6.08-6.83A21.73,21.73,0,0,0,528.1,309.75Zm37,24.75a25.29,25.29,0,0,1-9.83-1.89,24.2,24.2,0,0,1-13.16-13.13,26,26,0,0,1,0-19.45,24.2,24.2,0,0,1,13.16-13.13,25.29,25.29,0,0,1,9.83-1.89,28.51,28.51,0,0,1,6.77.79,19.66,19.66,0,0,1,5.88,2.44,2.32,2.32,0,0,1,1,1,2.69,2.69,0,0,1,.34,1.27,2.75,2.75,0,0,1-.79,2,2.46,2.46,0,0,1-1.82.83,3.38,3.38,0,0,1-.83-.11,2.76,2.76,0,0,1-.75-.31,23,23,0,0,0-4.61-1.75,20.62,20.62,0,0,0-5.22-.65,18.81,18.81,0,0,0-9.73,2.54,18.55,18.55,0,0,0-6.77,6.91,20.66,20.66,0,0,0,0,19.59,18.55,18.55,0,0,0,6.77,6.91,18.81,18.81,0,0,0,9.73,2.54,22,22,0,0,0,5.64-.76,20.36,20.36,0,0,0,4.94-1.92l-.41,1.65V313.53l1,1H565.84a2.82,2.82,0,0,1-2-.79,2.6,2.6,0,0,1-.82-2,2.68,2.68,0,0,1,.82-2,2.78,2.78,0,0,1,2-.79h12.5a2.59,2.59,0,0,1,2,.82,2.78,2.78,0,0,1,.79,2v15.87a2.88,2.88,0,0,1-.37,1.48,3.31,3.31,0,0,1-1,1.07,27.79,27.79,0,0,1-6.84,3.16A26,26,0,0,1,565.08,334.5Zm39.86,0A24.46,24.46,0,0,1,596,333a24,24,0,0,1-7.42-4.81,3.06,3.06,0,0,1-.79-1,2.85,2.85,0,0,1,.48-3.26,2.56,2.56,0,0,1,2-.86,2.33,2.33,0,0,1,1.71.76,19.63,19.63,0,0,0,5.81,4,17.32,17.32,0,0,0,7,1.38,14.59,14.59,0,0,0,5.43-1,9.67,9.67,0,0,0,3.85-2.69,6,6,0,0,0,1.44-4A6.7,6.7,0,0,0,614,317a11.57,11.57,0,0,0-4.26-3,41.8,41.8,0,0,0-6.29-2.07,40.92,40.92,0,0,1-5.81-1.82,17.38,17.38,0,0,1-4.6-2.68,10.85,10.85,0,0,1-3-3.92,12.73,12.73,0,0,1-1.07-5.46,11.6,11.6,0,0,1,2.06-6.84,13.71,13.71,0,0,1,5.74-4.57,20.37,20.37,0,0,1,8.42-1.65,23,23,0,0,1,7.94,1.37,15.41,15.41,0,0,1,6,3.78,3.72,3.72,0,0,1,1.38,2.62,2.57,2.57,0,0,1-.86,1.82,2.71,2.71,0,0,1-2,.86,2.18,2.18,0,0,1-1.37-.48,11.87,11.87,0,0,0-3-2.34,18.45,18.45,0,0,0-3.92-1.65,15,15,0,0,0-4.23-.62,15.41,15.41,0,0,0-5.57.93,8.75,8.75,0,0,0-3.74,2.58,6.08,6.08,0,0,0-1.34,4,6.18,6.18,0,0,0,1.51,4.3,11.18,11.18,0,0,0,4,2.75,44.31,44.31,0,0,0,5.64,1.89,55.26,55.26,0,0,1,6.22,1.89,18.84,18.84,0,0,1,4.92,2.65,10.53,10.53,0,0,1,3.19,4,14.13,14.13,0,0,1,1.14,6,11.24,11.24,0,0,1-2.13,6.74,14.63,14.63,0,0,1-5.81,4.67A19.3,19.3,0,0,1,604.94,334.5Zm28.32-48.8a2.72,2.72,0,0,1,2,.82,2.76,2.76,0,0,1,.82,2V331a2.69,2.69,0,0,1-.86,2,2.82,2.82,0,0,1-2,.82,2.74,2.74,0,0,1-2.09-.82,2.78,2.78,0,0,1-.79-2V288.52a2.72,2.72,0,0,1,.82-2A2.88,2.88,0,0,1,633.26,285.7Zm-.27,21h32l-.07,5.36h-32.1Zm31.89-21a2.78,2.78,0,0,1,2.1.82,2.82,2.82,0,0,1,.79,2V331a2.73,2.73,0,0,1-.83,2,2.88,2.88,0,0,1-2.13.82,2.7,2.7,0,0,1-2-.82,2.73,2.73,0,0,1-.83-2V288.52a2.69,2.69,0,0,1,.86-2A2.82,2.82,0,0,1,664.88,285.7Zm31.55,7.15-16.15,39.31a2.73,2.73,0,0,1-1,1.34,2.34,2.34,0,0,1-1.44.52,2.39,2.39,0,0,1-1.92-.72,2.8,2.8,0,0,1-.69-1.69,3.91,3.91,0,0,1,.14-1l17.8-43.23a3.17,3.17,0,0,1,1.13-1.45,2.53,2.53,0,0,1,1.62-.41,2.85,2.85,0,0,1,1.61.48,2.45,2.45,0,0,1,1,1.38l17.73,42.82a3.06,3.06,0,0,1,.21,1.1,2.57,2.57,0,0,1-.83,2,2.64,2.64,0,0,1-1.85.76,2.5,2.5,0,0,1-1.58-.52,3,3,0,0,1-1-1.41l-16.36-39.31ZM683.71,321l2.34-5.36h20.41l1,5.36Zm66.88,7.42a2.8,2.8,0,0,1,2,.79,2.61,2.61,0,0,1,.83,2,2.52,2.52,0,0,1-.83,1.93,2.85,2.85,0,0,1-2,.75H726.81a2.68,2.68,0,0,1-2-.82,2.78,2.78,0,0,1-.79-2V288.52a2.73,2.73,0,0,1,.83-2,2.88,2.88,0,0,1,2.13-.82,2.8,2.8,0,0,1,2.81,2.82v41.1l-1.37-1.24ZM778,292.85l-16.16,39.31a2.65,2.65,0,0,1-1,1.34,2.34,2.34,0,0,1-1.44.52,2.43,2.43,0,0,1-1.93-.72,2.85,2.85,0,0,1-.68-1.69,4.33,4.33,0,0,1,.13-1l17.81-43.23a3.17,3.17,0,0,1,1.13-1.45,2.53,2.53,0,0,1,1.62-.41,2.85,2.85,0,0,1,1.61.48,2.5,2.5,0,0,1,1,1.38l17.73,42.82a3.06,3.06,0,0,1,.21,1.1,2.57,2.57,0,0,1-.83,2,2.65,2.65,0,0,1-1.85.76,2.5,2.5,0,0,1-1.58-.52,3.08,3.08,0,0,1-1-1.41l-16.35-39.31ZM765.23,321l2.34-5.36H788l1,5.36Z"/></clipPath></defs><g id="Layer_2" data-name="Layer 2"><g id="Layer_2-2" data-name="Layer 2"><path class="cls-2" d="M141.42,400.75a124.27,124.27,0,0,1-19.72-13.94,27.84,27.84,0,0,1-5.13-5.54,12.61,12.61,0,0,1-2-7.61,9.64,9.64,0,0,1,3.9-7,10.25,10.25,0,0,1,8-1.38,7.29,7.29,0,0,1,3.92,1.83,8.21,8.21,0,0,1,2.21,3.76,15.45,15.45,0,0,1-.18,8,26.89,26.89,0,0,1-8.2,13,31.13,31.13,0,0,1-13.75,7,40.73,40.73,0,0,1-7.67.89c-2.44,0-4.89.08-7.33.05-4.48,0-8.94-.26-13.31-.38-1.59-4.06-3.35-8.17-4.87-12.38-.85-2.29-1.65-4.6-2.44-6.91a41.55,41.55,0,0,1-1.77-7.52A31,31,0,0,1,75,357.26a26.78,26.78,0,0,1,9.42-12.12,15.41,15.41,0,0,1,7.47-2.89,8.26,8.26,0,0,1,4.29.8,7.33,7.33,0,0,1,3,3.07,10.27,10.27,0,0,1,1.41,7.95,9.66,9.66,0,0,1-5.31,6.06,12.7,12.7,0,0,1-7.82.72,27.5,27.5,0,0,1-7-3,123.32,123.32,0,0,1-19.82-13.81A124.1,124.1,0,0,1,53,321.21a27.62,27.62,0,0,1-.89-7.49,12.59,12.59,0,0,1,2.86-7.32,9.63,9.63,0,0,1,7.3-3.41,10.24,10.24,0,0,1,7.24,3.56,7.31,7.31,0,0,1,2.1,3.79,8,8,0,0,1-.43,4.34,15.4,15.4,0,0,1-4.84,6.37A26.93,26.93,0,0,1,52,326.73a31,31,0,0,1-15.23-2.42,39.22,39.22,0,0,1-6.73-3.79c-2-1.4-4-2.8-6-4.26-3.62-2.63-7.07-5.47-10.54-8.13,1.11-4.22,2.09-8.58,3.34-12.88.65-2.36,1.37-4.69,2.09-7a39.8,39.8,0,0,1,3-7.12,31,31,0,0,1,10.54-11.26,26.81,26.81,0,0,1,14.75-4.26A15.3,15.3,0,0,1,55,267.63a8.09,8.09,0,0,1,3,3.16,7.29,7.29,0,0,1,.66,4.28,10.2,10.2,0,0,1-3.53,7.26,9.65,9.65,0,0,1-7.85,1.79,12.69,12.69,0,0,1-6.76-4,27.83,27.83,0,0,1-3.89-6.46,123.57,123.57,0,0,1-7.9-22.83,123.93,123.93,0,0,1,7.16-23.06,27.33,27.33,0,0,1,3.68-6.59,12.64,12.64,0,0,1,6.62-4.24,9.64,9.64,0,0,1,7.91,1.53,10.25,10.25,0,0,1,3.76,7.14,7.27,7.27,0,0,1-.52,4.3,8.14,8.14,0,0,1-2.9,3.26,15.31,15.31,0,0,1-7.66,2.3,26.87,26.87,0,0,1-14.89-3.78A31.2,31.2,0,0,1,21,220.75a40.1,40.1,0,0,1-3.22-7c-.79-2.31-1.58-4.62-2.32-6.95-1.38-4.26-2.51-8.58-3.75-12.77,3.38-2.77,6.74-5.72,10.28-8.47,1.91-1.51,3.86-3,5.82-4.45a40.74,40.74,0,0,1,6.6-4,31.08,31.08,0,0,1,15.15-2.91A26.86,26.86,0,0,1,64,179.38,15.4,15.4,0,0,1,69,185.59a8.07,8.07,0,0,1,.57,4.33,7.26,7.26,0,0,1-2,3.85,10.25,10.25,0,0,1-7.12,3.79,9.62,9.62,0,0,1-7.4-3.17,12.53,12.53,0,0,1-3.1-7.22,27.19,27.19,0,0,1,.65-7.52,123,123,0,0,1,7-23.11A123.34,123.34,0,0,1,77,142.09a27.57,27.57,0,0,1,6.85-3.17,12.67,12.67,0,0,1,7.85.46,9.6,9.6,0,0,1,5.49,5.89,10.2,10.2,0,0,1-1.15,8,7.14,7.14,0,0,1-2.95,3.16,8.11,8.11,0,0,1-4.26.94,15.38,15.38,0,0,1-7.55-2.64,26.91,26.91,0,0,1-9.82-11.81,31.07,31.07,0,0,1-2.4-15.24,39.83,39.83,0,0,1,1.52-7.57c.72-2.34,1.43-4.67,2.21-7,1.38-4.26,3-8.42,4.47-12.54,4.36-.25,8.82-.67,13.29-.81,2.44-.1,4.89-.14,7.33-.18a40.91,40.91,0,0,1,7.7.64,31.09,31.09,0,0,1,14,6.55,26.88,26.88,0,0,1,8.62,12.72,15.34,15.34,0,0,1,.43,8,8.12,8.12,0,0,1-2.08,3.84,7.31,7.31,0,0,1-3.86,1.95,10.2,10.2,0,0,1-8-1.12,9.61,9.61,0,0,1-4.13-6.91,12.59,12.59,0,0,1,1.74-7.67,27.73,27.73,0,0,1,4.94-5.7,124.2,124.2,0,0,1,19.27-14.57A123.35,123.35,0,0,1,160.66,97a27.49,27.49,0,0,1,7.4,1.46,12.6,12.6,0,0,1,6.08,5,9.59,9.59,0,0,1,1,8,10.23,10.23,0,0,1-5.62,5.79,7.26,7.26,0,0,1-4.25.82,8.12,8.12,0,0,1-4-1.75,15.32,15.32,0,0,1-4.55-6.57,26.83,26.83,0,0,1-1-15.33,31,31,0,0,1,7-13.74,40.71,40.71,0,0,1,5.69-5.23c2-1.47,3.91-2.93,5.9-4.35,3.61-2.64,7.38-5,11-7.52,3.68,2.36,7.52,4.64,11.23,7.16,2,1.35,4,2.76,6,4.16a40.46,40.46,0,0,1,5.85,5,31.06,31.06,0,0,1,7.45,13.51,26.85,26.85,0,0,1-.5,15.35,15.43,15.43,0,0,1-4.34,6.72,8.28,8.28,0,0,1-3.94,1.88,7.33,7.33,0,0,1-4.27-.69,10.2,10.2,0,0,1-5.81-5.61,9.61,9.61,0,0,1,.72-8,12.64,12.64,0,0,1,5.91-5.18,27.76,27.76,0,0,1,7.36-1.7,124.13,124.13,0,0,1,24.15-.47,124.72,124.72,0,0,1,19.72,13.94,27.84,27.84,0,0,1,5.13,5.54,12.6,12.6,0,0,1,2,7.61,9.58,9.58,0,0,1-3.9,7,10.22,10.22,0,0,1-8,1.38,7.29,7.29,0,0,1-3.92-1.83,8.12,8.12,0,0,1-2.21-3.76,15.35,15.35,0,0,1,.18-8,26.82,26.82,0,0,1,8.2-13,31.09,31.09,0,0,1,13.74-7,40.93,40.93,0,0,1,7.68-.89c2.44,0,4.89-.08,7.33,0,4.47,0,8.94.26,13.3.38,1.59,4.06,3.36,8.17,4.88,12.38.85,2.29,1.64,4.6,2.44,6.91a40.71,40.71,0,0,1,1.76,7.52,31,31,0,0,1-1.91,15.31,26.8,26.8,0,0,1-9.43,12.12,15.34,15.34,0,0,1-7.46,2.89,8.14,8.14,0,0,1-4.29-.8,7.27,7.27,0,0,1-3.05-3.07,10.23,10.23,0,0,1-1.41-7.95,9.65,9.65,0,0,1,5.3-6.06,12.74,12.74,0,0,1,7.83-.72,27.82,27.82,0,0,1,6.95,2.95,123.29,123.29,0,0,1,19.81,13.82,123,123,0,0,1,7.77,22.87,27.62,27.62,0,0,1,.89,7.49,12.59,12.59,0,0,1-2.86,7.32,9.63,9.63,0,0,1-7.3,3.41,10.22,10.22,0,0,1-7.24-3.56,7.18,7.18,0,0,1-2.1-3.79,8,8,0,0,1,.43-4.34,15.32,15.32,0,0,1,4.84-6.37,26.93,26.93,0,0,1,14.27-5.68,31,31,0,0,1,15.23,2.42,39.22,39.22,0,0,1,6.73,3.79c2,1.4,4,2.81,6,4.26,3.63,2.63,7.08,5.47,10.55,8.13-1.11,4.22-2.09,8.58-3.34,12.88-.66,2.36-1.37,4.69-2.09,7a40.54,40.54,0,0,1-3,7.12A31,31,0,0,1,344,226.6a26.84,26.84,0,0,1-14.76,4.26,15.29,15.29,0,0,1-7.73-2.05,8.09,8.09,0,0,1-3-3.16,7.3,7.3,0,0,1-.67-4.28,10.25,10.25,0,0,1,3.54-7.26,9.64,9.64,0,0,1,7.85-1.79,12.62,12.62,0,0,1,6.75,4,27.16,27.16,0,0,1,3.89,6.46,122.87,122.87,0,0,1,7.91,22.83,123.93,123.93,0,0,1-7.16,23.06,27.67,27.67,0,0,1-3.68,6.59,12.64,12.64,0,0,1-6.62,4.24,9.64,9.64,0,0,1-7.91-1.53,10.3,10.3,0,0,1-3.77-7.14,7.36,7.36,0,0,1,.53-4.3,8.14,8.14,0,0,1,2.9-3.26,15.31,15.31,0,0,1,7.66-2.3,26.83,26.83,0,0,1,14.88,3.78,31.15,31.15,0,0,1,10.91,10.91,40.85,40.85,0,0,1,3.22,7c.79,2.31,1.58,4.62,2.31,6.95,1.39,4.26,2.51,8.59,3.76,12.77-3.38,2.77-6.74,5.72-10.28,8.47-1.91,1.51-3.87,3-5.82,4.45a41.17,41.17,0,0,1-6.6,4A31.08,31.08,0,0,1,327,322.28a26.86,26.86,0,0,1-14.44-5.22,15.32,15.32,0,0,1-5.05-6.21,8.07,8.07,0,0,1-.57-4.33,7.36,7.36,0,0,1,2-3.85,10.25,10.25,0,0,1,7.13-3.79,9.63,9.63,0,0,1,7.4,3.17,12.6,12.6,0,0,1,3.1,7.22,27.58,27.58,0,0,1-.65,7.52,123.48,123.48,0,0,1-7,23.11,123.34,123.34,0,0,1-19.35,14.45,27.57,27.57,0,0,1-6.85,3.17,12.67,12.67,0,0,1-7.85-.46,9.6,9.6,0,0,1-5.49-5.89,10.2,10.2,0,0,1,1.14-8A7.25,7.25,0,0,1,283.4,340a8.15,8.15,0,0,1,4.27-.94,15.38,15.38,0,0,1,7.55,2.64A26.82,26.82,0,0,1,305,353.53a31,31,0,0,1,2.41,15.24,39.83,39.83,0,0,1-1.52,7.57c-.72,2.34-1.44,4.67-2.22,7-1.37,4.26-3,8.42-4.47,12.54-4.36.25-8.81.67-13.28.81-2.44.1-4.89.14-7.33.18a40.84,40.84,0,0,1-7.7-.64,31,31,0,0,1-14-6.55A26.88,26.88,0,0,1,248.34,377a15.44,15.44,0,0,1-.44-8,8.14,8.14,0,0,1,2.09-3.84,7.27,7.27,0,0,1,3.86-1.95,10.22,10.22,0,0,1,8,1.12,9.65,9.65,0,0,1,4.13,6.91,12.66,12.66,0,0,1-1.74,7.67,27.48,27.48,0,0,1-5,5.7A123.65,123.65,0,0,1,240,399.15a123.35,123.35,0,0,1-24.15.31,27.49,27.49,0,0,1-7.4-1.46,12.6,12.6,0,0,1-6.08-5,9.63,9.63,0,0,1-1-8,10.27,10.27,0,0,1,5.63-5.79,7.34,7.34,0,0,1,4.25-.82,8.05,8.05,0,0,1,4,1.75,15.34,15.34,0,0,1,4.56,6.57,26.83,26.83,0,0,1,1,15.33,31.06,31.06,0,0,1-7,13.74,40.64,40.64,0,0,1-5.68,5.23c-1.95,1.47-3.91,2.94-5.9,4.35-3.62,2.64-7.39,5-11,7.52-3.68-2.36-7.53-4.64-11.23-7.16-2-1.35-4-2.76-6-4.16a39.93,39.93,0,0,1-5.85-5A31.06,31.06,0,0,1,160.7,403a26.77,26.77,0,0,1,.5-15.35,15.43,15.43,0,0,1,4.34-6.72,8.24,8.24,0,0,1,3.94-1.88,7.35,7.35,0,0,1,4.27.69,10.26,10.26,0,0,1,5.81,5.61,9.64,9.64,0,0,1-.72,8,12.66,12.66,0,0,1-5.92,5.18,27.6,27.6,0,0,1-7.35,1.7A124.13,124.13,0,0,1,141.42,400.75ZM85.91,394l9.68.53c2.39.13,4.78.2,7.18.27a36,36,0,0,0,6.75-.48,26.83,26.83,0,0,0,12.11-5.5,23.34,23.34,0,0,0,7.57-10.9c1.35-4.07,1-9.45-3.34-10.05a7.39,7.39,0,0,0-6,.8,7.18,7.18,0,0,0-3,5.21,9.74,9.74,0,0,0,1.57,6.18,25.33,25.33,0,0,0,4.71,5.06,84.78,84.78,0,0,0,19.09,12.79,84.62,84.62,0,0,0,23,.13,25.76,25.76,0,0,0,6.74-1.54,9.79,9.79,0,0,0,4.77-4.24,7.19,7.19,0,0,0,.45-6,7.46,7.46,0,0,0-4.48-4c-3.9-1.92-7.23,2.33-8.41,6.46a23.29,23.29,0,0,0,.15,13.26,26.76,26.76,0,0,0,6.94,11.35,36.36,36.36,0,0,0,5.32,4.19c2,1.28,4,2.57,6.09,3.81l8.31,5,8.14-5.26c2-1.3,4-2.65,6-4a35.62,35.62,0,0,0,5.18-4.35A26.76,26.76,0,0,0,217,401.14a23.2,23.2,0,0,0-.28-13.26c-1.3-4.09-4.77-8.22-8.61-6.18a7.43,7.43,0,0,0-4.34,4.16,7.18,7.18,0,0,0,.64,6,9.84,9.84,0,0,0,4.9,4.09,26.3,26.3,0,0,0,6.79,1.32,85.35,85.35,0,0,0,23-.87A85.32,85.32,0,0,0,257.73,383a25.85,25.85,0,0,0,4.55-5.21,9.78,9.78,0,0,0,1.36-6.23,7.19,7.19,0,0,0-3.15-5.1,7.42,7.42,0,0,0-6-.62c-4.29.74-4.49,6.13-3,10.16a23.24,23.24,0,0,0,7.92,10.65,26.82,26.82,0,0,0,12.28,5.1,35.39,35.39,0,0,0,6.76.26c2.39-.15,4.79-.29,7.17-.5l9.66-.84,3.49-9c.87-2.24,1.67-4.49,2.47-6.75a35.68,35.68,0,0,0,1.64-6.57A26.71,26.71,0,0,0,301.4,355a23.35,23.35,0,0,0-8-10.56c-3.46-2.54-8.7-3.85-10.6.06a7.42,7.42,0,0,0-1.07,5.92,7.2,7.2,0,0,0,4,4.44,9.78,9.78,0,0,0,6.37.43,25.82,25.82,0,0,0,6.27-2.92,85.21,85.21,0,0,0,18.06-14.2,85.16,85.16,0,0,0,7.23-21.82,25.79,25.79,0,0,0,.61-6.89,9.72,9.72,0,0,0-2.56-5.84,7.19,7.19,0,0,0-5.55-2.28,7.44,7.44,0,0,0-5.2,3c-3,3.12,0,7.6,3.54,10a23.31,23.31,0,0,0,12.67,4,26.85,26.85,0,0,0,12.93-3.09,35.37,35.37,0,0,0,5.62-3.77c1.85-1.52,3.7-3.05,5.51-4.62l7.32-6.35-2.49-9.37c-.61-2.32-1.29-4.62-2-6.92a35.75,35.75,0,0,0-2.53-6.27,26.81,26.81,0,0,0-9-9.82,23.33,23.33,0,0,0-12.7-3.83c-4.29,0-9.29,2-8.53,6.28A7.41,7.41,0,0,0,324,276a7.21,7.21,0,0,0,5.87,1.23,9.86,9.86,0,0,0,5.4-3.4,26.34,26.34,0,0,0,3.35-6,85.4,85.4,0,0,0,6.27-22.12,84.83,84.83,0,0,0-7-21.89,26,26,0,0,0-3.55-5.94,9.83,9.83,0,0,0-5.51-3.22,7.24,7.24,0,0,0-5.83,1.42,7.43,7.43,0,0,0-2.43,5.5c-.62,4.3,4.44,6.16,8.74,6a23.27,23.27,0,0,0,12.57-4.24,26.81,26.81,0,0,0,8.65-10.1,36.3,36.3,0,0,0,2.33-6.36c.6-2.32,1.2-4.63,1.74-7l2.19-9.44-7.52-6.12c-1.86-1.51-3.76-3-5.66-4.44a36.14,36.14,0,0,0-5.74-3.58,26.82,26.82,0,0,0-13-2.67A23.3,23.3,0,0,0,312.29,178c-3.48,2.5-6.34,7.08-3.21,10.09a7.4,7.4,0,0,0,5.29,2.85,7.22,7.22,0,0,0,5.48-2.45,9.87,9.87,0,0,0,2.37-5.93,26.05,26.05,0,0,0-.84-6.86,85,85,0,0,0-7.93-21.57,84.87,84.87,0,0,0-18.52-13.61,25.72,25.72,0,0,0-6.35-2.71,9.78,9.78,0,0,0-6.35.62,7.22,7.22,0,0,0-3.88,4.58,7.43,7.43,0,0,0,1.26,5.88c2,3.84,7.22,2.37,10.59-.28a23.21,23.21,0,0,0,7.68-10.82,26.78,26.78,0,0,0,1.06-13.26,35.36,35.36,0,0,0-1.85-6.51c-.87-2.23-1.75-4.46-2.69-6.67l-3.78-8.92-9.68-.53c-2.39-.13-4.78-.2-7.18-.27a36,36,0,0,0-6.75.48,26.83,26.83,0,0,0-12.11,5.5,23.34,23.34,0,0,0-7.57,10.9c-1.35,4.07-1,9.45,3.33,10a7.41,7.41,0,0,0,6-.8,7.22,7.22,0,0,0,3-5.21,9.8,9.8,0,0,0-1.57-6.18,25.33,25.33,0,0,0-4.71-5.06,85,85,0,0,0-19.09-12.79,84.62,84.62,0,0,0-23-.13,25.67,25.67,0,0,0-6.74,1.54,9.75,9.75,0,0,0-4.77,4.24,7.19,7.19,0,0,0-.45,6,7.46,7.46,0,0,0,4.48,4c3.9,1.92,7.23-2.33,8.4-6.46A23.21,23.21,0,0,0,212,94.45,26.64,26.64,0,0,0,205.1,83.1a36.36,36.36,0,0,0-5.32-4.19c-2-1.28-4-2.57-6.1-3.81l-8.3-5-8.14,5.26c-2,1.3-4,2.65-6,4a35.62,35.62,0,0,0-5.18,4.35,26.78,26.78,0,0,0-6.57,11.57,23.28,23.28,0,0,0,.29,13.26c1.3,4.09,4.77,8.22,8.6,6.18a7.42,7.42,0,0,0,4.35-4.16,7.18,7.18,0,0,0-.64-6,9.84,9.84,0,0,0-4.9-4.09,26.3,26.3,0,0,0-6.79-1.32,85.44,85.44,0,0,0-23,.87,85.49,85.49,0,0,0-18.66,13.41,25.85,25.85,0,0,0-4.55,5.21,9.78,9.78,0,0,0-1.36,6.23A7.14,7.14,0,0,0,116,130a7.42,7.42,0,0,0,6,.62c4.28-.74,4.49-6.13,3-10.16a23.31,23.31,0,0,0-7.92-10.65,26.82,26.82,0,0,0-12.28-5.1,35.5,35.5,0,0,0-6.77-.26c-2.39.15-4.78.29-7.17.5l-9.65.84-3.49,9c-.87,2.24-1.67,4.49-2.48,6.75a35.65,35.65,0,0,0-1.63,6.57,26.7,26.7,0,0,0,1.49,13.22,23.28,23.28,0,0,0,8,10.56c3.46,2.54,8.7,3.85,10.6-.06A7.46,7.46,0,0,0,94.82,146a7.18,7.18,0,0,0-4-4.44,9.75,9.75,0,0,0-6.36-.43A25.82,25.82,0,0,0,78.16,144a85.27,85.27,0,0,0-18.07,14.2,85.14,85.14,0,0,0-7.22,21.82,26.23,26.23,0,0,0-.62,6.89,9.79,9.79,0,0,0,2.57,5.84,7.18,7.18,0,0,0,5.54,2.28,7.44,7.44,0,0,0,5.21-3c3-3.12,0-7.6-3.55-10a23.25,23.25,0,0,0-12.66-4,26.85,26.85,0,0,0-12.93,3.09A35.92,35.92,0,0,0,30.8,185c-1.85,1.52-3.69,3.05-5.5,4.62L18,195.92l2.49,9.37c.61,2.32,1.29,4.62,2,6.92A35.78,35.78,0,0,0,25,218.48a26.87,26.87,0,0,0,9,9.82,23.39,23.39,0,0,0,12.71,3.83c4.29,0,9.29-2,8.53-6.28a7.42,7.42,0,0,0-2.61-5.42,7.21,7.21,0,0,0-5.87-1.23,9.82,9.82,0,0,0-5.4,3.4A25.84,25.84,0,0,0,38,228.65a84.83,84.83,0,0,0-6.27,22.11,84.83,84.83,0,0,0,7,21.89,26,26,0,0,0,3.55,5.94,9.8,9.8,0,0,0,5.5,3.22,7.22,7.22,0,0,0,5.83-1.42,7.4,7.4,0,0,0,2.44-5.5c.62-4.3-4.45-6.16-8.74-6a23.25,23.25,0,0,0-12.57,4.24A26.89,26.89,0,0,0,26,283.23a35.52,35.52,0,0,0-2.33,6.36c-.6,2.32-1.2,4.63-1.74,7L19.76,306l7.52,6.12c1.86,1.51,3.76,3,5.65,4.44a36.23,36.23,0,0,0,5.75,3.58,26.8,26.8,0,0,0,13,2.67,23.27,23.27,0,0,0,12.52-4.37c3.49-2.5,6.35-7.08,3.22-10.09a7.4,7.4,0,0,0-5.3-2.85A7.2,7.2,0,0,0,56.68,308a9.81,9.81,0,0,0-2.37,5.93,26.05,26.05,0,0,0,.84,6.86,84.6,84.6,0,0,0,7.93,21.57A84.63,84.63,0,0,0,81.6,355.92,26,26,0,0,0,88,358.64,9.85,9.85,0,0,0,94.3,358a7.22,7.22,0,0,0,3.88-4.58,7.43,7.43,0,0,0-1.26-5.88c-2-3.84-7.22-2.37-10.6.28a23.27,23.27,0,0,0-7.67,10.82,26.78,26.78,0,0,0-1.06,13.26,35.33,35.33,0,0,0,1.84,6.51c.88,2.23,1.76,4.46,2.69,6.67Z"/><path class="cls-3" d="M85.1,395.17a44.85,44.85,0,0,0,5.16.75A62.41,62.41,0,0,0,111,394.05a1.66,1.66,0,1,1,.8,3.23l-.11,0c-7.09,1.29-14.43,2.06-21.69,1.14a53.63,53.63,0,0,1-6.37-1.18,55.17,55.17,0,0,1-3.28-5.59c-3.33-6.52-5.1-13.69-6.3-20.79,0,0,0-.08,0-.11a1.66,1.66,0,1,1,3.31-.35,62.47,62.47,0,0,0,5.28,20.14A43.46,43.46,0,0,0,85.1,395.17Z"/><path class="cls-4" d="M18.43,306.46a44.3,44.3,0,0,0,3.73,3.65A62.61,62.61,0,0,0,40,320.79a1.66,1.66,0,1,1-1.25,3.08l-.1-.05C32.19,320.7,25.8,317,20.47,312a53.59,53.59,0,0,1-4.46-4.7,55.23,55.23,0,0,1,.63-6.45c1.14-7.23,3.92-14.07,7.13-20.52l.05-.1a1.66,1.66,0,1,1,2.88,1.67,62.57,62.57,0,0,0-7.56,19.4A42.56,42.56,0,0,0,18.43,306.46Z"/><path class="cls-5" d="M16.63,195.51a42.61,42.61,0,0,0,.88,5.15A62.42,62.42,0,0,0,25.7,219.8a1.67,1.67,0,1,1-2.83,1.76l-.05-.09c-3.42-6.35-6.43-13.1-7.79-20.28a57.4,57.4,0,0,1-.85-6.43,53.74,53.74,0,0,1,4.31-4.84c5.16-5.19,11.44-9.08,17.83-12.42l.1-.05a1.66,1.66,0,0,1,1.35,3,62.65,62.65,0,0,0-17.52,11.25A43,43,0,0,0,16.63,195.51Z"/><path class="cls-6" d="M80.39,104.69a43.31,43.31,0,0,0-2.32,4.68,62.52,62.52,0,0,0-4.62,20.31,1.66,1.66,0,0,1-3.32-.24.37.37,0,0,1,0-.11c1-7.14,2.5-14.37,5.62-21a56,56,0,0,1,3.09-5.69,53.54,53.54,0,0,1,6.34-1.39c7.22-1.16,14.59-.62,21.71.44H107a1.67,1.67,0,0,1-.69,3.26,62.26,62.26,0,0,0-20.79-1.2A42.56,42.56,0,0,0,80.39,104.69Z"/><path class="cls-7" d="M185.36,68.7a42.41,42.41,0,0,0-4.63,2.42,62.67,62.67,0,0,0-15.68,13.71,1.66,1.66,0,1,1-2.54-2.15l.07-.08c5-5.21,10.47-10.15,16.88-13.67a56,56,0,0,1,5.85-2.79,55.29,55.29,0,0,1,5.94,2.6c6.53,3.31,12.17,8.07,17.32,13.12l.07.08a1.66,1.66,0,1,1-2.47,2.22A62.56,62.56,0,0,0,190.06,71,43.23,43.23,0,0,0,185.36,68.7Z"/><path class="cls-8" d="M291.43,101.27a44.7,44.7,0,0,0-5.17-.75,62.46,62.46,0,0,0-20.74,1.87,1.66,1.66,0,0,1-.79-3.23l.1,0c7.09-1.29,14.44-2.06,21.7-1.14a55.72,55.72,0,0,1,6.37,1.18,55.17,55.17,0,0,1,3.28,5.59c3.33,6.52,5.1,13.69,6.3,20.79,0,0,0,.08,0,.11a1.66,1.66,0,1,1-3.31.35,62.47,62.47,0,0,0-5.28-20.14A43.46,43.46,0,0,0,291.43,101.27Z"/><path class="cls-9" d="M358.1,190a43,43,0,0,0-3.74-3.65,62.43,62.43,0,0,0-17.87-10.68,1.65,1.65,0,0,1-.92-2.16,1.68,1.68,0,0,1,2.17-.92l.1.05c6.49,3.12,12.89,6.81,18.22,11.83a55.12,55.12,0,0,1,4.46,4.7,53.16,53.16,0,0,1-.64,6.45c-1.13,7.23-3.91,14.07-7.12,20.52l-.05.1a1.66,1.66,0,1,1-2.88-1.67,62.57,62.57,0,0,0,7.56-19.4A42.56,42.56,0,0,0,358.1,190Z"/><path class="cls-10" d="M359.9,300.93a43,43,0,0,0-.88-5.15,62.42,62.42,0,0,0-8.19-19.14,1.67,1.67,0,1,1,2.83-1.76.73.73,0,0,0,0,.09c3.42,6.35,6.42,13.1,7.79,20.28a55.15,55.15,0,0,1,.84,6.43,56.83,56.83,0,0,1-4.3,4.85c-5.17,5.18-11.44,9.07-17.83,12.41l-.1.05a1.66,1.66,0,0,1-1.35-3,62.65,62.65,0,0,0,17.52-11.25A43,43,0,0,0,359.9,300.93Z"/><path class="cls-11" d="M296.14,391.75a43.23,43.23,0,0,0,2.31-4.68,62.53,62.53,0,0,0,4.63-20.31,1.66,1.66,0,1,1,3.32.24s0,.08,0,.11c-1,7.14-2.5,14.37-5.62,21a56.07,56.07,0,0,1-3.1,5.69,53.38,53.38,0,0,1-6.33,1.39c-7.22,1.16-14.59.62-21.72-.44h-.1a1.67,1.67,0,1,1,.69-3.26,62.26,62.26,0,0,0,20.79,1.2A43.27,43.27,0,0,0,296.14,391.75Z"/><path class="cls-12" d="M191.17,427.74a42.41,42.41,0,0,0,4.63-2.42,62.63,62.63,0,0,0,15.67-13.71,1.67,1.67,0,1,1,2.55,2.15l-.07.08c-5,5.21-10.47,10.15-16.89,13.67a54.14,54.14,0,0,1-5.85,2.79,56,56,0,0,1-5.93-2.6c-6.53-3.31-12.17-8.07-17.32-13.12l-.08-.08a1.66,1.66,0,0,1,2.48-2.22,62.39,62.39,0,0,0,16.11,13.19A43.23,43.23,0,0,0,191.17,427.74Z"/><path class="cls-13" d="M83,398.16a1.05,1.05,0,0,1-.14.84,1.11,1.11,0,0,1-.79.49,1.08,1.08,0,0,1,.2-.91A1,1,0,0,1,83,398.16Z"/><path class="cls-14" d="M15,307.65a1.1,1.1,0,0,1-1.54.53,1.08,1.08,0,0,1,.69-.63A1.13,1.13,0,0,1,15,307.65Z"/><path class="cls-15" d="M13.13,194.44a1.1,1.1,0,0,1-.84.12,1,1,0,0,1-.71-.6,1.07,1.07,0,0,1,1.55.48Z"/><path class="cls-16" d="M78.19,101.77a1.15,1.15,0,0,1-.75-.39,1.06,1.06,0,0,1-.22-.91,1.09,1.09,0,0,1,.8.47A1,1,0,0,1,78.19,101.77Z"/><path class="cls-17" d="M185.3,65a1.08,1.08,0,0,1-.38-.76.51.51,0,1,1,.73,0A1.09,1.09,0,0,1,185.3,65Z"/><path class="cls-18" d="M293.53,98.28a1.08,1.08,0,0,1,.94-1.33,1.08,1.08,0,0,1-.2.91A1,1,0,0,1,293.53,98.28Z"/><path class="cls-19" d="M361.56,188.79a1.08,1.08,0,1,1,.84.1A1.11,1.11,0,0,1,361.56,188.79Z"/><path class="cls-20" d="M363.4,302a1.08,1.08,0,0,1,.83-.12,1.07,1.07,0,0,1,.72.6,1.12,1.12,0,0,1-.93.1A1.08,1.08,0,0,1,363.4,302Z"/><path class="cls-21" d="M298.34,394.67a1.15,1.15,0,0,1,.75.39,1.13,1.13,0,0,1,.22.91,1.11,1.11,0,0,1-.81-.47A1.07,1.07,0,0,1,298.34,394.67Z"/><path class="cls-22" d="M191.23,431.4a1.08,1.08,0,0,1,.38.76.51.51,0,1,1-.73,0A1.09,1.09,0,0,1,191.23,431.4Z"/><path class="cls-23" d="M133,428.21c-13.16-7.3-23.3-18.84-33.23-30.14-3.17-3.6-6.25-7.11-9.38-10.43-4.19-1.81-8.53-3.52-13-5.28-14-5.5-28.3-11.12-39.63-21-6.35-13.64-7.78-28.94-9.17-43.92-.44-4.77-.88-9.43-1.45-13.95-2.32-3.93-4.84-7.87-7.42-11.91C11.62,278.89,3.36,265.93,0,251.27c2.88-14.77,10.72-28,18.4-40.92,2.44-4.12,4.83-8.14,7-12.14.43-4.54.71-9.2,1-14,.91-15,1.84-30.35,7.74-44.19,11-10.25,25.12-16.33,38.94-22.29,4.4-1.9,8.69-3.75,12.82-5.69,3-3.43,6-7,9-10.74,9.56-11.61,19.33-23.47,32.24-31.2,14.93-1.82,29.92,1.55,44.6,4.86,4.67,1,9.23,2.08,13.71,2.92,4.46-1,9-2.16,13.62-3.37,14.57-3.78,29.44-7.63,44.42-6.29,13.15,7.3,23.3,18.84,33.23,30.14,3.16,3.6,6.25,7.11,9.38,10.43,4.18,1.81,8.53,3.52,13,5.28,14,5.5,28.3,11.12,39.64,21C345.13,148.73,346.55,164,348,179c.44,4.77.87,9.43,1.45,14,2.32,3.93,4.84,7.87,7.42,11.91,8.09,12.69,16.35,25.64,19.71,40.3-2.88,14.77-10.72,28-18.4,40.92-2.45,4.12-4.83,8.14-7,12.14-.43,4.54-.72,9.21-1,14-.91,15-1.84,30.35-7.74,44.19-11,10.26-25.12,16.34-38.94,22.29-4.4,1.9-8.69,3.75-12.82,5.7-3,3.42-6,7-9,10.73-9.57,11.61-19.33,23.47-32.24,31.2-14.93,1.82-29.92-1.55-44.6-4.86-4.68-1.05-9.23-2.07-13.72-2.92-4.45,1-9,2.16-13.61,3.37C162.84,425.7,148,429.55,133,428.21ZM90.87,386.94c3.17,3.37,6.3,6.93,9.51,10.58,9.84,11.19,19.89,22.62,32.86,29.87,14.81,1.28,29.54-2.54,44-6.28,4.71-1.22,9.29-2.41,13.81-3.41,4.55.86,9.17,1.9,13.91,3,14.54,3.28,29.38,6.61,44.14,4.85,12.74-7.66,22.41-19.41,31.88-30.91,3.09-3.76,6.1-7.41,9.16-10.88,4.19-2,8.54-3.86,13-5.78,13.69-5.9,27.65-11.92,38.56-22,5.8-13.69,6.72-28.88,7.62-43.75.29-4.85.57-9.58,1-14.19,2.22-4.06,4.63-8.14,7.12-12.32,7.6-12.81,15.36-25.89,18.24-40.48-3.35-14.48-11.53-27.3-19.55-39.86-2.61-4.1-5.16-8.1-7.51-12.08-.59-4.59-1-9.31-1.48-14.15-1.38-14.84-2.79-30-9-43.48-11.23-9.74-25.38-15.31-39.25-20.76-4.53-1.78-8.94-3.51-13.18-5.35-3.18-3.37-6.3-6.93-9.52-10.58-9.83-11.19-19.88-22.62-32.85-29.87-14.81-1.28-29.54,2.54-44,6.28-4.71,1.22-9.29,2.41-13.81,3.41-4.55-.85-9.17-1.9-13.92-3-14.53-3.28-29.38-6.61-44.13-4.85-12.74,7.67-22.41,19.41-31.88,30.91-3.09,3.76-6.1,7.42-9.16,10.88-4.19,2-8.54,3.86-13,5.78-13.69,5.9-27.66,11.92-38.56,22-5.8,13.69-6.72,28.88-7.62,43.75-.29,4.85-.58,9.58-1,14.19-2.22,4.06-4.64,8.14-7.12,12.32-7.6,12.81-15.36,25.9-18.25,40.48,3.36,14.48,11.54,27.3,19.55,39.86,2.62,4.1,5.17,8.1,7.52,12.08.59,4.59,1,9.31,1.48,14.15,1.38,14.84,2.79,30,9,43.48,11.22,9.74,25.38,15.31,39.25,20.76C82.21,383.37,86.62,385.1,90.87,386.94Z"/><path class="cls-24" d="M173.93,374.78A127.37,127.37,0,1,1,314.82,262.55,127.51,127.51,0,0,1,173.93,374.78ZM202.18,125.3a123.71,123.71,0,1,0,109,136.84A123.84,123.84,0,0,0,202.18,125.3Z"/><path class="cls-25" d="M261.33,290.72l.14-.13c22.22-19.43,17.6-54.9,17.6-54.9-1.25,6.86-18.92,15.92-38.9,20.47,8.15-12.77,13.84-31.68,13.29-59.66-7.15,0-20.44,6.7-32.44,16.87-3.53-16.29-16.13-32.82-32.5-50.42-6,3.92-26.71,27.31-31.82,51.45-12.33-10.77-26.29-17.92-33.63-17.9,0,25.15,3.5,44.88,13.05,59.59-19.83-4.57-37.46-13.54-38.67-20.4-2.42,9.79.62,38.79,17.75,55-9.36,3.57-18.28,7.87-19.28,9.27,13.67,24.88,35.71,21.57,54.22,12.14-7.52-3.91-6.44-9.88-5.88-12.82.42-1.31.75-2.41-.36-1.7-2.75,1.39-4.55,1.75-5.89,1.58-3.23-.38-3.83-3.78-9-2.95-.08-2.64,5.13-1.62,5.13-1.62-.92-2.11-.64-7.46-.24-9.14l1.3-.22c1.54,3.15,7.34,5.6,7.56,5.44,7.87,3,7.85-1.81,14.62-6.94a19.79,19.79,0,0,0,5.06-5.94c.19-.32.3-.53.3-.53V254.14c-1-4.8,2.31-7.86,6.93-9.91l.24-.1a120,120,0,0,1,12.21-3.57c-.3-2,.86-7.3-1.28-8.62-1.83,1-3.41-6.65-1.71-6.66-1.08-10.5,2.69-14.39,9.36-14.43s10.43,3.92,9.35,14.43c1.71,0,.13,7.64-1.71,6.66-2.13,1.33-1,6.62-1.28,8.62a118.44,118.44,0,0,1,12,3.48l.23.09c4.75,2,8.21,5,7.19,10v23.14l.41.73c1,2.39,6.09,6.91,9.38,9.8l2.75,2.52h0c1.78,2.7,11.42.71,14.91-5l1.41.26c.33,1.6.65,7-.27,9,0,0,5.21-1,5.13,1.62-5.12-.83-5.73,2.57-9,2.95-1.35.17-3.14-.19-5.89-1.58-1.06-.68-.76.4-.36,1.7v0c.57,3,1.64,9-6.14,12.92,18.47,9.33,40.36,12.49,54-12.27C279.81,298.68,270.75,294.31,261.33,290.72Z"/><path class="cls-26" d="M216.71,294.2l-.49-.32a21.6,21.6,0,0,1-7.74-9.3h0a26.34,26.34,0,0,1-1.76-9.41.45.45,0,0,1,0,.08,8.9,8.9,0,0,0-.23,1.14c0,.13-.05.26-.07.38a39.55,39.55,0,0,0-.74,9.5c-.1,5.22,1.58,8.78,4.28,11l.19.16c2.67,2.33,6.6,3.31,12,2.44l.55-.09c.28,0,.55-.09.83-.15a8,8,0,0,0,3.93-1.07A36.64,36.64,0,0,1,216.71,294.2Z"/><path class="cls-27" d="M175.53,281.92h0a22.78,22.78,0,0,0-.21-2.36c0-.35-.09-.67-.12-.94a.77.77,0,0,1,0-.15q-.06-.47-.12-.87c0-.1,0-.2,0-.3-.12-.8-.23-1.46-.33-1.89a.14.14,0,0,0,0-.06.13.13,0,0,0,0-.06v0c0-.15,0-.2,0-.13v.06c0,.13,0,.41,0,.83v.07a35.5,35.5,0,0,1-.51,4.45,1.16,1.16,0,0,0,0,.18,24.65,24.65,0,0,1-4.54,9.12,1.15,1.15,0,0,1-.14.17,23.34,23.34,0,0,1-5.17,4.4,32.56,32.56,0,0,1-10.32,4.1l.05,0,.09,0,.19.06.13,0c10.29,3.34,21.82,1.15,21.22-12.85A26.85,26.85,0,0,0,175.53,281.92Z"/><text/><g class="cls-28"><rect class="cls-29" x="398.99" y="144.12" width="452.68" height="200.68"/></g></g></g></svg>